Commissioner-BlackStraightFlair.ufo
<glyph name="numbersign" format="2">
  <advance width="714"/>
  <unicode hex="0023"/>
  <outline>
    <contour>
      <point x="10" y="108" type="line"/>
      <point x="85" y="108"/>
      <point x="156" y="108"/>
      <point x="218" y="108" type="curve"/>
      <point x="452" y="108" type="line"/>
      <point x="514" y="108"/>
      <point x="585" y="108"/>
      <point x="660" y="108" type="curve"/>
      <point x="660" y="268" type="line"/>
      <point x="585" y="268"/>
      <point x="514" y="268"/>
      <point x="452" y="268" type="curve"/>
      <point x="218" y="268" type="line"/>
      <point x="156" y="268"/>
      <point x="85" y="268"/>
      <point x="10" y="268" type="curve"/>
    </contour>
    <contour>
      <point x="92" y="0" type="curve"/>
      <point x="254" y="0" type="line"/>
      <point x="266" y="69"/>
      <point x="276" y="134"/>
      <point x="290" y="219" type="curve"/>
      <point x="327" y="451" type="line"/>
      <point x="341" y="543"/>
      <point x="350" y="599"/>
      <point x="362" y="673" type="curve"/>
      <point x="200" y="673" type="line"/>
      <point x="188" y="595"/>
      <point x="179" y="540"/>
      <point x="165" y="451" type="curve"/>
      <point x="128" y="219" type="line"/>
      <point x="114" y="132"/>
      <point x="103" y="65"/>
    </contour>
    <contour>
      <point x="54" y="402" type="line"/>
      <point x="129" y="402"/>
      <point x="200" y="402"/>
      <point x="262" y="402" type="curve"/>
      <point x="496" y="402" type="line"/>
      <point x="558" y="402"/>
      <point x="629" y="402"/>
      <point x="704" y="402" type="curve"/>
      <point x="704" y="562" type="line"/>
      <point x="629" y="562"/>
      <point x="558" y="562"/>
      <point x="496" y="562" type="curve"/>
      <point x="262" y="562" type="line"/>
      <point x="200" y="562"/>
      <point x="129" y="562"/>
      <point x="54" y="562" type="curve"/>
    </contour>
    <contour>
      <point x="352" y="0" type="curve"/>
      <point x="514" y="0" type="line"/>
      <point x="526" y="69"/>
      <point x="536" y="134"/>
      <point x="550" y="219" type="curve"/>
      <point x="587" y="451" type="line"/>
      <point x="601" y="543"/>
      <point x="610" y="599"/>
      <point x="622" y="673" type="curve"/>
      <point x="460" y="673" type="line"/>
      <point x="448" y="595"/>
      <point x="439" y="540"/>
      <point x="425" y="451" type="curve"/>
      <point x="388" y="219" type="line"/>
      <point x="374" y="132"/>
      <point x="363" y="65"/>
    </contour>
  </outline>
</glyph>
<glyph name="dollar" format="2">
  <advance width="588"/>
  <unicode hex="0024"/>
  <outline>
    <contour>
      <point x="281" y="-15" type="curve" smooth="yes"/>
      <point x="482" y="-15"/>
      <point x="569" y="65"/>
      <point x="569" y="207" type="curve" smooth="yes"/>
      <point x="569" y="331"/>
      <point x="516" y="381"/>
      <point x="355" y="426" type="curve" smooth="yes"/>
      <point x="270" y="450"/>
      <point x="232" y="453"/>
      <point x="232" y="479" type="curve" smooth="yes"/>
      <point x="232" y="503"/>
      <point x="275" y="515"/>
      <point x="322" y="515" type="curve"/>
      <point x="382" y="515"/>
      <point x="453" y="496"/>
      <point x="517" y="460" type="curve"/>
      <point x="532" y="655" type="line"/>
      <point x="472" y="679"/>
      <point x="367" y="700"/>
      <point x="282" y="700" type="curve" smooth="yes"/>
      <point x="104" y="700"/>
      <point x="25" y="612"/>
      <point x="25" y="478" type="curve" smooth="yes"/>
      <point x="25" y="345"/>
      <point x="94" y="295"/>
      <point x="212" y="263" type="curve" smooth="yes"/>
      <point x="305" y="238"/>
      <point x="363" y="233"/>
      <point x="363" y="203" type="curve" smooth="yes"/>
      <point x="363" y="180"/>
      <point x="332" y="166"/>
      <point x="271" y="166" type="curve"/>
      <point x="206" y="166"/>
      <point x="121" y="187"/>
      <point x="53" y="223" type="curve"/>
      <point x="37" y="31" type="line"/>
      <point x="90" y="7"/>
      <point x="195" y="-15"/>
    </contour>
    <contour>
      <point x="222" y="-137" type="curve"/>
      <point x="382" y="-137" type="line"/>
      <point x="382" y="-20"/>
      <point x="382" y="82"/>
      <point x="382" y="192" type="curve"/>
      <point x="382" y="474" type="line"/>
      <point x="382" y="582"/>
      <point x="382" y="685"/>
      <point x="382" y="803" type="curve"/>
      <point x="222" y="803" type="line"/>
      <point x="222" y="685"/>
      <point x="222" y="582"/>
      <point x="222" y="474" type="curve"/>
      <point x="222" y="192" type="line"/>
      <point x="222" y="84"/>
      <point x="222" y="-19"/>
    </contour>
  </outline>
</glyph>
<glyph name="quotesingle" format="2">
  <advance width="252"/>
  <unicode hex="0027"/>
  <outline>
    <contour>
      <point x="43" y="359" type="curve"/>
      <point x="202" y="360" type="line"/>
      <point x="210" y="490"/>
      <point x="218" y="618"/>
      <point x="227" y="745" type="curve"/>
      <point x="18" y="740" type="line"/>
      <point x="27" y="614"/>
      <point x="35" y="487"/>
    </contour>
  </outline>
</glyph>
<glyph name="comma" format="2">
  <advance width="272"/>
  <unicode hex="002C"/>
  <outline>
    <contour>
      <point x="-6" y="-157" type="curve"/>
      <point x="94" y="-155" type="line"/>
      <point x="161" y="-112"/>
      <point x="247" y="-23"/>
      <point x="247" y="87" type="curve" smooth="yes"/>
      <point x="247" y="156"/>
      <point x="216" y="210"/>
      <point x="141" y="220" type="curve"/>
      <point x="46" y="211" type="line"/>
      <point x="46" y="156"/>
      <point x="46" y="101"/>
      <point x="46" y="52" type="curve"/>
      <point x="46" y="-31"/>
      <point x="28" y="-99"/>
    </contour>
  </outline>
</glyph>
<glyph name="hyphen" format="2">
  <advance width="430"/>
  <unicode hex="002D"/>
  <outline>
    <contour>
      <point x="40" y="209" type="line"/>
      <point x="103" y="209"/>
      <point x="163" y="209"/>
      <point x="215" y="209" type="curve"/>
      <point x="267" y="209"/>
      <point x="327" y="209"/>
      <point x="390" y="209" type="curve"/>
      <point x="390" y="399" type="line"/>
      <point x="327" y="399"/>
      <point x="267" y="399"/>
      <point x="215" y="399" type="curve"/>
      <point x="163" y="399"/>
      <point x="103" y="399"/>
      <point x="40" y="399" type="curve"/>
    </contour>
  </outline>
</glyph>
<glyph name="three" format="2">
  <advance width="596"/>
  <unicode hex="0033"/>
  <outline>
    <contour>
      <point x="283" y="-16" type="curve" smooth="yes"/>
      <point x="481" y="-16"/>
      <point x="568" y="70"/>
      <point x="568" y="195" type="curve" smooth="yes"/>
      <point x="568" y="298"/>
      <point x="504" y="347"/>
      <point x="433" y="360" type="curve"/>
      <point x="433" y="376" type="line"/>
      <point x="502" y="389"/>
      <point x="554" y="433"/>
      <point x="554" y="519" type="curve" smooth="yes"/>
      <point x="554" y="632"/>
      <point x="465" y="706"/>
      <point x="288" y="706" type="curve" smooth="yes"/>
      <point x="193" y="706"/>
      <point x="100" y="683"/>
      <point x="39" y="660" type="curve"/>
      <point x="57" y="453" type="line"/>
      <point x="115" y="486"/>
      <point x="183" y="516"/>
      <point x="245" y="516" type="curve"/>
      <point x="292" y="516"/>
      <point x="317" y="498"/>
      <point x="317" y="463" type="curve" smooth="yes"/>
      <point x="317" y="430"/>
      <point x="295" y="416"/>
      <point x="243" y="416" type="curve"/>
      <point x="212" y="416"/>
      <point x="182" y="416"/>
      <point x="151" y="416" type="curve"/>
      <point x="151" y="267" type="line"/>
      <point x="187" y="267"/>
      <point x="222" y="267"/>
      <point x="258" y="267" type="curve"/>
      <point x="309" y="267"/>
      <point x="332" y="253"/>
      <point x="332" y="221" type="curve" smooth="yes"/>
      <point x="332" y="192"/>
      <point x="313" y="174"/>
      <point x="257" y="174" type="curve"/>
      <point x="192" y="174"/>
      <point x="116" y="202"/>
      <point x="45" y="237" type="curve"/>
      <point x="30" y="32" type="line"/>
      <point x="84" y="7"/>
      <point x="176" y="-16"/>
    </contour>
  </outline>
</glyph>
<glyph name="equal" format="2">
  <advance width="590"/>
  <unicode hex="003D"/>
  <outline>
    <contour>
      <point x="50" y="84" type="line"/>
      <point x="125" y="84"/>
      <point x="196" y="84"/>
      <point x="258" y="84" type="curve"/>
      <point x="332" y="84" type="line"/>
      <point x="394" y="84"/>
      <point x="465" y="84"/>
      <point x="540" y="84" type="curve"/>
      <point x="540" y="274" type="line"/>
      <point x="465" y="274"/>
      <point x="394" y="274"/>
      <point x="332" y="274" type="curve"/>
      <point x="258" y="274" type="line"/>
      <point x="196" y="274"/>
      <point x="125" y="274"/>
      <point x="50" y="274" type="curve"/>
    </contour>
    <contour>
      <point x="50" y="344" type="line"/>
      <point x="125" y="344"/>
      <point x="196" y="344"/>
      <point x="258" y="344" type="curve"/>
      <point x="332" y="344" type="line"/>
      <point x="394" y="344"/>
      <point x="465" y="344"/>
      <point x="540" y="344" type="curve"/>
      <point x="540" y="534" type="line"/>
      <point x="465" y="534"/>
      <point x="394" y="534"/>
      <point x="332" y="534" type="curve"/>
      <point x="258" y="534" type="line"/>
      <point x="196" y="534"/>
      <point x="125" y="534"/>
      <point x="50" y="534" type="curve"/>
    </contour>
  </outline>
</glyph>
<glyph name="A" format="2">
  <advance width="749"/>
  <unicode hex="0041"/>
  <anchor x="375" y="0" name="bottom"/>
  <anchor x="739" y="0" name="ogonek"/>
  <anchor x="375" y="713" name="top"/>
  <outline>
    <contour>
      <point x="12" y="0" type="curve"/>
      <point x="257" y="0" type="line"/>
      <point x="271" y="66"/>
      <point x="287" y="142"/>
      <point x="301" y="208" type="curve"/>
      <point x="365" y="510" type="line"/>
      <point x="381" y="510" type="line"/>
      <point x="444" y="204" type="line"/>
      <point x="457" y="141"/>
      <point x="472" y="68"/>
      <point x="486" y="0" type="curve"/>
      <point x="739" y="0" type="line"/>
      <point x="717" y="76"/>
      <point x="692" y="162"/>
      <point x="669" y="241" type="curve"/>
      <point x="598" y="486" type="line"/>
      <point x="573" y="572"/>
      <point x="554" y="637"/>
      <point x="532" y="713" type="curve"/>
      <point x="219" y="713" type="line"/>
      <point x="198" y="641"/>
      <point x="179" y="575"/>
      <point x="153" y="486" type="curve"/>
      <point x="82" y="241" type="line"/>
      <point x="60" y="165"/>
      <point x="34" y="76"/>
    </contour>
    <contour>
      <point x="227" y="116" type="line"/>
      <point x="550" y="116" type="line"/>
      <point x="527" y="296" type="line"/>
      <point x="255" y="296" type="line"/>
    </contour>
  </outline>
</glyph>
<glyph name="B" format="2">
  <advance width="681"/>
  <unicode hex="0042"/>
  <outline>
    <contour>
      <point x="327" y="0" type="curve"/>
      <point x="595" y="0"/>
      <point x="659" y="77"/>
      <point x="659" y="204" type="curve" smooth="yes"/>
      <point x="659" y="304"/>
      <point x="609" y="353"/>
      <point x="510" y="376" type="curve"/>
      <point x="510" y="392" type="line"/>
      <point x="587" y="408"/>
      <point x="645" y="462"/>
      <point x="645" y="554" type="curve" smooth="yes"/>
      <point x="645" y="646"/>
      <point x="591" y="713"/>
      <point x="363" y="713" type="curve"/>
      <point x="252" y="713"/>
      <point x="132" y="713"/>
      <point x="46" y="713" type="curve"/>
      <point x="46" y="636"/>
      <point x="46" y="569"/>
      <point x="46" y="474" type="curve"/>
      <point x="46" y="229" type="line"/>
      <point x="46" y="138"/>
      <point x="46" y="74"/>
      <point x="46" y="0" type="curve"/>
      <point x="118" y="0"/>
      <point x="211" y="0"/>
    </contour>
    <contour>
      <point x="287" y="167" type="line"/>
      <point x="287" y="199"/>
      <point x="287" y="231"/>
      <point x="287" y="282" type="curve"/>
      <point x="287" y="422" type="line"/>
      <point x="287" y="477"/>
      <point x="287" y="514"/>
      <point x="287" y="550" type="curve"/>
      <point x="344" y="550" type="line" smooth="yes"/>
      <point x="379" y="550"/>
      <point x="393" y="525"/>
      <point x="393" y="489" type="curve" smooth="yes"/>
      <point x="393" y="449"/>
      <point x="371" y="432"/>
      <point x="338" y="432" type="curve" smooth="yes"/>
      <point x="228" y="432" type="line"/>
      <point x="228" y="283" type="line"/>
      <point x="352" y="283" type="line" smooth="yes"/>
      <point x="389" y="283"/>
      <point x="405" y="260"/>
      <point x="405" y="225" type="curve" smooth="yes"/>
      <point x="405" y="184"/>
      <point x="383" y="167"/>
      <point x="351" y="167" type="curve" smooth="yes"/>
    </contour>
  </outline>
</glyph>
<glyph name="C" format="2">
  <advance width="682"/>
  <unicode hex="0043"/>
  <anchor x="393" y="0" name="bottom"/>
  <anchor x="393" y="713" name="top"/>
  <outline>
    <contour>
      <point x="412" y="-16" type="curve" smooth="yes"/>
      <point x="496" y="-16"/>
      <point x="584" y="-3"/>
      <point x="642" y="25" type="curve"/>
      <point x="631" y="247" type="line"/>
      <point x="566" y="197"/>
      <point x="504" y="182"/>
      <point x="448" y="182" type="curve"/>
      <point x="332" y="182"/>
      <point x="280" y="264"/>
      <point x="280" y="355" type="curve" smooth="yes"/>
      <point x="280" y="471"/>
      <point x="345" y="524"/>
      <point x="430" y="524" type="curve"/>
      <point x="483" y="524"/>
      <point x="550" y="504"/>
      <point x="628" y="453" type="curve"/>
      <point x="645" y="678" type="line"/>
      <point x="584" y="708"/>
      <point x="489" y="729"/>
      <point x="400" y="729" type="curve" smooth="yes"/>
      <point x="153" y="729"/>
      <point x="24" y="567"/>
      <point x="24" y="354" type="curve" smooth="yes"/>
      <point x="24" y="125"/>
      <point x="174" y="-16"/>
    </contour>
  </outline>
</glyph>
<glyph name="E" format="2">
  <advance width="600"/>
  <unicode hex="0045"/>
  <anchor x="303" y="0" name="bottom"/>
  <anchor x="560" y="0" name="ogonek"/>
  <anchor x="303" y="713" name="top"/>
  <anchor x="33" y="713" name="topleft"/>
  <outline>
    <contour>
      <point x="46" y="0" type="curve"/>
      <point x="286" y="0" type="line"/>
      <point x="286" y="40" type="line"/>
      <point x="286" y="114"/>
      <point x="286" y="178"/>
      <point x="286" y="269" type="curve"/>
      <point x="286" y="434" type="line"/>
      <point x="286" y="529"/>
      <point x="286" y="596"/>
      <point x="286" y="673" type="curve"/>
      <point x="286" y="713" type="line"/>
      <point x="46" y="713" type="line"/>
      <point x="46" y="636"/>
      <point x="46" y="569"/>
      <point x="46" y="474" type="curve"/>
      <point x="46" y="229" type="line"/>
      <point x="46" y="138"/>
      <point x="46" y="74"/>
    </contour>
    <contour>
      <point x="260" y="0" type="line"/>
      <point x="560" y="0" type="line"/>
      <point x="560" y="193" type="line"/>
      <point x="501" y="193"/>
      <point x="438" y="193"/>
      <point x="367" y="193" type="curve"/>
      <point x="260" y="193" type="line"/>
    </contour>
    <contour>
      <point x="229" y="271" type="line"/>
      <point x="351" y="271" type="line"/>
      <point x="430" y="271"/>
      <point x="484" y="271"/>
      <point x="542" y="271" type="curve"/>
      <point x="542" y="443" type="line"/>
      <point x="487" y="443"/>
      <point x="433" y="443"/>
      <point x="351" y="443" type="curve"/>
      <point x="229" y="443" type="line"/>
    </contour>
    <contour>
      <point x="244" y="520" type="line"/>
      <point x="351" y="520" type="line"/>
      <point x="437" y="520"/>
      <point x="497" y="520"/>
      <point x="553" y="520" type="curve"/>
      <point x="553" y="713" type="line"/>
      <point x="244" y="713" type="line"/>
    </contour>
  </outline>
</glyph>
<glyph name="F" format="2">
  <advance width="581"/>
  <unicode hex="0046"/>
  <outline>
    <contour>
      <point x="46" y="0" type="curve"/>
      <point x="286" y="0" type="line"/>
      <point x="286" y="74"/>
      <point x="286" y="138"/>
      <point x="286" y="229" type="curve"/>
      <point x="286" y="434" type="line"/>
      <point x="286" y="529"/>
      <point x="286" y="596"/>
      <point x="286" y="673" type="curve"/>
      <point x="286" y="713" type="line"/>
      <point x="46" y="713" type="line"/>
      <point x="46" y="636"/>
      <point x="46" y="569"/>
      <point x="46" y="474" type="curve"/>
      <point x="46" y="229" type="line"/>
      <point x="46" y="138"/>
      <point x="46" y="74"/>
    </contour>
    <contour>
      <point x="223" y="245" type="line"/>
      <point x="345" y="245" type="line"/>
      <point x="424" y="245"/>
      <point x="478" y="245"/>
      <point x="536" y="245" type="curve"/>
      <point x="536" y="438" type="line"/>
      <point x="481" y="438"/>
      <point x="427" y="438"/>
      <point x="345" y="438" type="curve"/>
      <point x="223" y="438" type="line"/>
    </contour>
    <contour>
      <point x="239" y="511" type="line"/>
      <point x="346" y="511" type="line"/>
      <point x="432" y="511"/>
      <point x="492" y="511"/>
      <point x="548" y="511" type="curve"/>
      <point x="548" y="713" type="line"/>
      <point x="239" y="713" type="line"/>
    </contour>
  </outline>
</glyph>
<glyph name="H" format="2">
  <advance width="751"/>
  <unicode hex="0048"/>
  <anchor x="376" y="0" name="bottom"/>
  <anchor x="376" y="357" name="center"/>
  <anchor x="376" y="713" name="top"/>
  <anchor x="38" y="713" name="topleft"/>
  <outline>
    <contour>
      <point x="459" y="0" type="curve"/>
      <point x="705" y="0" type="line"/>
      <point x="705" y="74"/>
      <point x="705" y="138"/>
      <point x="705" y="229" type="curve"/>
      <point x="705" y="474" type="line"/>
      <point x="705" y="569"/>
      <point x="705" y="636"/>
      <point x="705" y="713" type="curve"/>
      <point x="459" y="713" type="line"/>
      <point x="459" y="636"/>
      <point x="459" y="569"/>
      <point x="459" y="474" type="curve"/>
      <point x="459" y="229" type="line"/>
      <point x="459" y="138"/>
      <point x="459" y="74"/>
    </contour>
    <contour>
      <point x="46" y="0" type="curve"/>
      <point x="292" y="0" type="line"/>
      <point x="292" y="74"/>
      <point x="292" y="138"/>
      <point x="292" y="229" type="curve"/>
      <point x="292" y="474" type="line"/>
      <point x="292" y="569"/>
      <point x="292" y="636"/>
      <point x="292" y="713" type="curve"/>
      <point x="46" y="713" type="line"/>
      <point x="46" y="636"/>
      <point x="46" y="569"/>
      <point x="46" y="474" type="curve"/>
      <point x="46" y="229" type="line"/>
      <point x="46" y="138"/>
      <point x="46" y="74"/>
    </contour>
    <contour>
      <point x="232" y="256" type="line"/>
      <point x="522" y="256" type="line"/>
      <point x="522" y="458" type="line"/>
      <point x="232" y="458" type="line"/>
    </contour>
  </outline>
</glyph>
<glyph name="J" format="2">
  <advance width="350"/>
  <unicode hex="004A"/>
  <anchor x="173" y="0" name="bottom"/>
  <anchor x="173" y="713" name="top"/>
  <outline>
    <contour>
      <point x="-11" y="-152" type="curve"/>
      <point x="211" y="-152" type="line"/>
      <point x="264" y="-105"/>
      <point x="299" y="-35"/>
      <point x="299" y="79" type="curve" smooth="yes"/>
      <point x="299" y="169"/>
      <point x="299" y="267"/>
      <point x="299" y="367" type="curve"/>
      <point x="299" y="474" type="line"/>
      <point x="299" y="569"/>
      <point x="299" y="636"/>
      <point x="299" y="713" type="curve"/>
      <point x="53" y="713" type="line"/>
      <point x="53" y="636"/>
      <point x="53" y="569"/>
      <point x="53" y="474" type="curve"/>
      <point x="53" y="367" type="line"/>
      <point x="53" y="91" type="line"/>
      <point x="53" y="6"/>
      <point x="36" y="-77"/>
    </contour>
  </outline>
</glyph>
<glyph name="S" format="2">
  <advance width="616"/>
  <unicode hex="0053"/>
  <anchor x="308" y="0" name="bottom"/>
  <anchor x="308" y="713" name="top"/>
  <outline>
    <contour>
      <point x="294" y="-16" type="curve" smooth="yes"/>
      <point x="507" y="-16"/>
      <point x="597" y="68"/>
      <point x="597" y="216" type="curve" smooth="yes"/>
      <point x="597" y="340"/>
      <point x="541" y="392"/>
      <point x="371" y="438" type="curve" smooth="yes"/>
      <point x="312" y="454"/>
      <point x="284" y="465"/>
      <point x="284" y="495" type="curve" smooth="yes"/>
      <point x="284" y="523"/>
      <point x="308" y="535"/>
      <point x="348" y="535" type="curve"/>
      <point x="399" y="535"/>
      <point x="475" y="516"/>
      <point x="542" y="478" type="curve"/>
      <point x="558" y="682" type="line"/>
      <point x="495" y="707"/>
      <point x="388" y="729"/>
      <point x="295" y="729" type="curve" smooth="yes"/>
      <point x="108" y="729"/>
      <point x="25" y="638"/>
      <point x="25" y="498" type="curve" smooth="yes"/>
      <point x="25" y="366"/>
      <point x="98" y="313"/>
      <point x="221" y="281" type="curve" smooth="yes"/>
      <point x="291" y="263"/>
      <point x="339" y="250"/>
      <point x="339" y="216" type="curve" smooth="yes"/>
      <point x="339" y="188"/>
      <point x="319" y="174"/>
      <point x="273" y="174" type="curve"/>
      <point x="214" y="174"/>
      <point x="126" y="196"/>
      <point x="54" y="233" type="curve"/>
      <point x="38" y="32" type="line"/>
      <point x="93" y="7"/>
      <point x="206" y="-16"/>
    </contour>
  </outline>
</glyph>
<glyph name="U" format="2">
  <advance width="726"/>
  <unicode hex="0055"/>
  <anchor x="364" y="0" name="bottom"/>
  <anchor x="490" y="0" name="ogonek"/>
  <anchor x="364" y="713" name="top"/>
  <anchor x="716" y="713" name="topright"/>
  <outline>
    <contour>
      <point x="365" y="-16" type="curve" smooth="yes"/>
      <point x="586" y="-16"/>
      <point x="683" y="96"/>
      <point x="683" y="283" type="curve" smooth="yes"/>
      <point x="683" y="315"/>
      <point x="683" y="402"/>
      <point x="683" y="474" type="curve"/>
      <point x="683" y="569"/>
      <point x="683" y="636"/>
      <point x="683" y="713" type="curve"/>
      <point x="438" y="713" type="line"/>
      <point x="438" y="636"/>
      <point x="438" y="569"/>
      <point x="438" y="474" type="curve"/>
      <point x="438" y="293" type="line" smooth="yes"/>
      <point x="438" y="220"/>
      <point x="417" y="182"/>
      <point x="364" y="182" type="curve"/>
      <point x="315" y="182"/>
      <point x="288" y="220"/>
      <point x="288" y="293" type="curve" smooth="yes"/>
      <point x="288" y="474" type="line"/>
      <point x="288" y="569"/>
      <point x="288" y="636"/>
      <point x="288" y="713" type="curve"/>
      <point x="43" y="713" type="line"/>
      <point x="43" y="636"/>
      <point x="43" y="569"/>
      <point x="43" y="474" type="curve"/>
      <point x="43" y="402"/>
      <point x="43" y="319"/>
      <point x="43" y="284" type="curve" smooth="yes"/>
      <point x="43" y="96"/>
      <point x="127" y="-16"/>
    </contour>
  </outline>
</glyph>
<glyph name="V" format="2">
  <advance width="736"/>
  <unicode hex="0056"/>
  <anchor x="368" y="0" name="bottom"/>
  <anchor x="368" y="713" name="top"/>
  <outline>
    <contour>
      <point x="202" y="0" type="curve"/>
      <point x="529" y="0" type="line"/>
      <point x="548" y="70"/>
      <point x="570" y="155"/>
      <point x="589" y="226" type="curve"/>
      <point x="649" y="450" type="line"/>
      <point x="670" y="528"/>
      <point x="696" y="626"/>
      <point x="719" y="713" type="curve"/>
      <point x="454" y="713" type="line"/>
      <point x="440" y="633"/>
      <point x="425" y="546"/>
      <point x="412" y="468" type="curve"/>
      <point x="374" y="247" type="line"/>
      <point x="358" y="247" type="line"/>
      <point x="326" y="467" type="line"/>
      <point x="315" y="544"/>
      <point x="301" y="636"/>
      <point x="290" y="713" type="curve"/>
      <point x="17" y="713" type="line"/>
      <point x="39" y="629"/>
      <point x="65" y="527"/>
      <point x="85" y="450" type="curve"/>
      <point x="143" y="226" type="line"/>
      <point x="161" y="157"/>
      <point x="184" y="71"/>
    </contour>
  </outline>
</glyph>
<glyph name="backslash" format="2">
  <advance width="464"/>
  <unicode hex="005C"/>
  <outline>
    <contour>
      <point x="251" y="0" type="curve"/>
      <point x="463" y="0" type="line"/>
      <point x="437" y="74"/>
      <point x="415" y="137"/>
      <point x="383" y="228" type="curve"/>
      <point x="296" y="476" type="line"/>
      <point x="263" y="570"/>
      <point x="240" y="636"/>
      <point x="213" y="713" type="curve"/>
      <point x="1" y="713" type="line"/>
      <point x="28" y="636"/>
      <point x="51" y="571"/>
      <point x="85" y="474" type="curve"/>
      <point x="171" y="228" type="line"/>
      <point x="203" y="137"/>
      <point x="225" y="74"/>
    </contour>
  </outline>
</glyph>
<glyph name="a" format="2">
  <advance width="525"/>
  <unicode hex="0061"/>
  <anchor x="267" y="0" name="bottom"/>
  <anchor x="495" y="0" name="ogonek"/>
  <anchor x="267" y="502" name="top"/>
  <outline>
    <contour>
      <point x="149" y="-14" type="curve" smooth="yes"/>
      <point x="217" y="-14"/>
      <point x="262" y="25"/>
      <point x="287" y="73" type="curve"/>
      <point x="301" y="73" type="line"/>
      <point x="316" y="0" type="line"/>
      <point x="495" y="0" type="line"/>
      <point x="495" y="69"/>
      <point x="495" y="134"/>
      <point x="495" y="190" type="curve"/>
      <point x="495" y="212" type="line" smooth="yes"/>
      <point x="495" y="244"/>
      <point x="495" y="298"/>
      <point x="495" y="333" type="curve" smooth="yes"/>
      <point x="495" y="464"/>
      <point x="416" y="518"/>
      <point x="283" y="518" type="curve" smooth="yes"/>
      <point x="177" y="518"/>
      <point x="92" y="495"/>
      <point x="41" y="479" type="curve"/>
      <point x="50" y="297" type="line"/>
      <point x="106" y="326"/>
      <point x="172" y="339"/>
      <point x="218" y="339" type="curve" smooth="yes"/>
      <point x="277" y="339"/>
      <point x="300" y="325"/>
      <point x="299" y="308" type="curve"/>
      <point x="171" y="284" type="line" smooth="yes"/>
      <point x="119" y="274"/>
      <point x="18" y="244"/>
      <point x="18" y="126" type="curve" smooth="yes"/>
      <point x="18" y="52"/>
      <point x="59" y="-14"/>
    </contour>
    <contour>
      <point x="253" y="153" type="curve" smooth="yes"/>
      <point x="239" y="153"/>
      <point x="223" y="163"/>
      <point x="223" y="186" type="curve" smooth="yes"/>
      <point x="223" y="210"/>
      <point x="240" y="220"/>
      <point x="255" y="226" type="curve" smooth="yes"/>
      <point x="277" y="235"/>
      <point x="285" y="241"/>
      <point x="293" y="250" type="curve"/>
      <point x="293" y="179" type="line"/>
      <point x="282" y="164"/>
      <point x="267" y="153"/>
    </contour>
  </outline>
</glyph>
<glyph name="c" format="2">
  <advance width="474"/>
  <unicode hex="0063"/>
  <anchor x="274" y="0" name="bottom"/>
  <anchor x="274" y="502" name="top"/>
  <outline>
    <contour>
      <point x="297" y="-12" type="curve" smooth="yes"/>
      <point x="368" y="-12"/>
      <point x="414" y="-5"/>
      <point x="451" y="7" type="curve"/>
      <point x="443" y="194" type="line"/>
      <point x="415" y="175"/>
      <point x="384" y="166"/>
      <point x="352" y="166" type="curve"/>
      <point x="285" y="166"/>
      <point x="244" y="200"/>
      <point x="244" y="256" type="curve" smooth="yes"/>
      <point x="244" y="303"/>
      <point x="274" y="333"/>
      <point x="320" y="333" type="curve"/>
      <point x="343" y="333"/>
      <point x="381" y="329"/>
      <point x="439" y="296" type="curve"/>
      <point x="454" y="483" type="line"/>
      <point x="412" y="505"/>
      <point x="348" y="517"/>
      <point x="287" y="517" type="curve" smooth="yes"/>
      <point x="103" y="517"/>
      <point x="18" y="404"/>
      <point x="18" y="249" type="curve" smooth="yes"/>
      <point x="18" y="95"/>
      <point x="118" y="-12"/>
    </contour>
  </outline>
</glyph>
<glyph name="e" format="2">
  <advance width="526"/>
  <unicode hex="0065"/>
  <anchor x="274" y="0" name="bottom"/>
  <anchor x="439" y="0" name="ogonek"/>
  <anchor x="274" y="502" name="top"/>
  <outline>
    <contour>
      <point x="313" y="-16" type="curve" smooth="yes"/>
      <point x="398" y="-16"/>
      <point x="459" y="-1"/>
      <point x="499" y="14" type="curve"/>
      <point x="492" y="196" type="line"/>
      <point x="444" y="174"/>
      <point x="374" y="163"/>
      <point x="342" y="163" type="curve" smooth="yes"/>
      <point x="259" y="163"/>
      <point x="226" y="191"/>
      <point x="226" y="248" type="curve"/>
      <point x="226" y="287" type="line"/>
      <point x="226" y="352"/>
      <point x="250" y="377"/>
      <point x="275" y="377" type="curve"/>
      <point x="299" y="377"/>
      <point x="316" y="348"/>
      <point x="316" y="303" type="curve" smooth="yes"/>
      <point x="316" y="296"/>
      <point x="315" y="287"/>
      <point x="314" y="279" type="curve"/>
      <point x="501" y="218" type="line"/>
      <point x="504" y="239"/>
      <point x="506" y="259"/>
      <point x="506" y="288" type="curve" smooth="yes"/>
      <point x="506" y="449"/>
      <point x="421" y="518"/>
      <point x="273" y="518" type="curve" smooth="yes"/>
      <point x="96" y="518"/>
      <point x="18" y="408"/>
      <point x="18" y="251" type="curve" smooth="yes"/>
      <point x="18" y="94"/>
      <point x="103" y="-16"/>
    </contour>
    <contour>
      <point x="101" y="218" type="line"/>
      <point x="501" y="218" type="line"/>
      <point x="501" y="298" type="line"/>
      <point x="374" y="310" type="line"/>
      <point x="101" y="300" type="line"/>
    </contour>
  </outline>
</glyph>
<glyph name="m" format="2">
  <advance width="873"/>
  <unicode hex="006D"/>
  <anchor x="439" y="0" name="bottom"/>
  <anchor x="439" y="502" name="top"/>
  <outline>
    <contour>
      <point x="35" y="0" type="curve"/>
      <point x="257" y="0" type="line"/>
      <point x="257" y="69"/>
      <point x="257" y="129"/>
      <point x="257" y="200" type="curve"/>
      <point x="257" y="291" type="line"/>
      <point x="267" y="306"/>
      <point x="282" y="318"/>
      <point x="298" y="318" type="curve" smooth="yes"/>
      <point x="320" y="318"/>
      <point x="328" y="300"/>
      <point x="328" y="265" type="curve"/>
      <point x="328" y="200" type="line"/>
      <point x="328" y="129"/>
      <point x="328" y="69"/>
      <point x="328" y="0" type="curve"/>
      <point x="550" y="0" type="line"/>
      <point x="550" y="69"/>
      <point x="550" y="129"/>
      <point x="550" y="213" type="curve"/>
      <point x="550" y="255"/>
      <point x="550" y="297"/>
      <point x="550" y="342" type="curve" smooth="yes"/>
      <point x="550" y="368"/>
      <point x="547" y="391"/>
      <point x="542" y="412" type="curve"/>
      <point x="526" y="412" type="line"/>
      <point x="510" y="480"/>
      <point x="471" y="518"/>
      <point x="399" y="518" type="curve" smooth="yes"/>
      <point x="330" y="518"/>
      <point x="282" y="484"/>
      <point x="246" y="431" type="curve"/>
      <point x="229" y="431" type="line"/>
      <point x="219" y="512" type="line"/>
      <point x="35" y="502" type="line"/>
      <point x="35" y="419"/>
      <point x="35" y="342"/>
      <point x="35" y="263" type="curve"/>
      <point x="35" y="213" type="line"/>
      <point x="35" y="129"/>
      <point x="35" y="69"/>
    </contour>
    <contour>
      <point x="621" y="0" type="curve"/>
      <point x="843" y="0" type="line"/>
      <point x="843" y="69"/>
      <point x="843" y="129"/>
      <point x="843" y="213" type="curve"/>
      <point x="843" y="255"/>
      <point x="843" y="297"/>
      <point x="843" y="342" type="curve" smooth="yes"/>
      <point x="843" y="461"/>
      <point x="786" y="518"/>
      <point x="693" y="518" type="curve" smooth="yes"/>
      <point x="621" y="518"/>
      <point x="570" y="484"/>
      <point x="533" y="431" type="curve"/>
      <point x="516" y="431" type="line"/>
      <point x="549" y="291" type="line"/>
      <point x="560" y="306"/>
      <point x="575" y="318"/>
      <point x="591" y="318" type="curve" smooth="yes"/>
      <point x="613" y="318"/>
      <point x="621" y="300"/>
      <point x="621" y="265" type="curve"/>
      <point x="621" y="200" type="line"/>
      <point x="621" y="129"/>
      <point x="621" y="69"/>
    </contour>
  </outline>
</glyph>
<glyph name="n" format="2">
  <advance width="584"/>
  <unicode hex="006E"/>
  <anchor x="294" y="0" name="bottom"/>
  <anchor x="294" y="502" name="top"/>
  <outline>
    <contour>
      <point x="35" y="0" type="curve"/>
      <point x="257" y="0" type="line"/>
      <point x="257" y="69"/>
      <point x="257" y="129"/>
      <point x="257" y="200" type="curve"/>
      <point x="257" y="291" type="line"/>
      <point x="268" y="306"/>
      <point x="283" y="318"/>
      <point x="300" y="318" type="curve" smooth="yes"/>
      <point x="324" y="318"/>
      <point x="332" y="300"/>
      <point x="332" y="265" type="curve"/>
      <point x="332" y="200" type="line"/>
      <point x="332" y="129"/>
      <point x="332" y="69"/>
      <point x="332" y="0" type="curve"/>
      <point x="554" y="0" type="line"/>
      <point x="554" y="69"/>
      <point x="554" y="129"/>
      <point x="554" y="213" type="curve"/>
      <point x="554" y="255"/>
      <point x="554" y="297"/>
      <point x="554" y="342" type="curve" smooth="yes"/>
      <point x="554" y="461"/>
      <point x="496" y="518"/>
      <point x="402" y="518" type="curve" smooth="yes"/>
      <point x="331" y="518"/>
      <point x="282" y="484"/>
      <point x="246" y="431" type="curve"/>
      <point x="229" y="431" type="line"/>
      <point x="219" y="512" type="line"/>
      <point x="35" y="502" type="line"/>
      <point x="35" y="419"/>
      <point x="35" y="342"/>
      <point x="35" y="263" type="curve"/>
      <point x="35" y="213" type="line"/>
      <point x="35" y="129"/>
      <point x="35" y="69"/>
    </contour>
  </outline>
</glyph>
<glyph name="r" format="2">
  <advance width="427"/>
  <unicode hex="0072"/>
  <anchor x="146" y="0" name="bottom"/>
  <anchor x="237" y="502" name="top"/>
  <outline>
    <contour>
      <point x="35" y="0" type="curve"/>
      <point x="257" y="0" type="line"/>
      <point x="257" y="69"/>
      <point x="257" y="129"/>
      <point x="257" y="200" type="curve"/>
      <point x="257" y="267" type="line"/>
      <point x="268" y="283"/>
      <point x="288" y="295"/>
      <point x="324" y="295" type="curve" smooth="yes"/>
      <point x="348" y="295"/>
      <point x="370" y="295"/>
      <point x="400" y="295" type="curve"/>
      <point x="419" y="508" type="line"/>
      <point x="402" y="516"/>
      <point x="380" y="518"/>
      <point x="369" y="518" type="curve" smooth="yes"/>
      <point x="326" y="518"/>
      <point x="283" y="501"/>
      <point x="246" y="431" type="curve"/>
      <point x="229" y="431" type="line"/>
      <point x="219" y="512" type="line"/>
      <point x="35" y="502" type="line"/>
      <point x="35" y="419"/>
      <point x="35" y="342"/>
      <point x="35" y="263" type="curve"/>
      <point x="35" y="213" type="line"/>
      <point x="35" y="129"/>
      <point x="35" y="69"/>
    </contour>
  </outline>
</glyph>
<glyph name="t" format="2">
  <advance width="436"/>
  <unicode hex="0074"/>
  <anchor x="232" y="0" name="bottom"/>
  <anchor x="224" y="251" name="center"/>
  <anchor x="215" y="680" name="top"/>
  <anchor x="307" y="502" name="topright"/>
  <outline>
    <contour>
      <point x="276" y="-16" type="curve" smooth="yes"/>
      <point x="326" y="-16"/>
      <point x="386" y="-9"/>
      <point x="417" y="8" type="curve"/>
      <point x="407" y="182" type="line"/>
      <point x="383" y="167"/>
      <point x="361" y="161"/>
      <point x="344" y="161" type="curve" smooth="yes"/>
      <point x="307" y="161"/>
      <point x="296" y="188"/>
      <point x="296" y="237" type="curve" smooth="yes"/>
      <point x="296" y="450" type="line"/>
      <point x="296" y="550"/>
      <point x="296" y="619"/>
      <point x="296" y="701" type="curve"/>
      <point x="77" y="665" type="line"/>
      <point x="77" y="596"/>
      <point x="77" y="534"/>
      <point x="77" y="450" type="curve"/>
      <point x="77" y="285"/>
      <point x="77" y="216"/>
      <point x="77" y="160" type="curve" smooth="yes"/>
      <point x="77" y="27"/>
      <point x="153" y="-16"/>
    </contour>
    <contour>
      <point x="12" y="339" type="line"/>
      <point x="145" y="339" type="line"/>
      <point x="247" y="339" type="line"/>
      <point x="300" y="339"/>
      <point x="359" y="339"/>
      <point x="417" y="339" type="curve"/>
      <point x="417" y="502" type="line"/>
      <point x="12" y="502" type="line"/>
    </contour>
  </outline>
</glyph>
<glyph name="w" format="2">
  <advance width="863"/>
  <unicode hex="0077"/>
  <anchor x="427" y="0" name="bottom"/>
  <anchor x="427" y="502" name="top"/>
  <outline>
    <contour>
      <point x="150" y="0" type="curve"/>
      <point x="383" y="0" type="line"/>
      <point x="389" y="42"/>
      <point x="396" y="88"/>
      <point x="402" y="129" type="curve"/>
      <point x="414" y="209" type="line"/>
      <point x="428" y="209" type="line"/>
      <point x="441" y="130" type="line"/>
      <point x="448" y="89"/>
      <point x="456" y="42"/>
      <point x="463" y="0" type="curve"/>
      <point x="706" y="0" type="line"/>
      <point x="725" y="62"/>
      <point x="745" y="127"/>
      <point x="765" y="192" type="curve"/>
      <point x="792" y="280" type="line"/>
      <point x="815" y="354"/>
      <point x="837" y="427"/>
      <point x="860" y="502" type="curve"/>
      <point x="620" y="502" type="line"/>
      <point x="614" y="453"/>
      <point x="606" y="390"/>
      <point x="599" y="335" type="curve"/>
      <point x="585" y="227" type="line"/>
      <point x="570" y="227" type="line"/>
      <point x="556" y="333" type="line"/>
      <point x="549" y="389"/>
      <point x="541" y="448"/>
      <point x="534" y="502" type="curve"/>
      <point x="331" y="502" type="line"/>
      <point x="324" y="446"/>
      <point x="316" y="390"/>
      <point x="309" y="333" type="curve"/>
      <point x="295" y="227" type="line"/>
      <point x="280" y="227" type="line"/>
      <point x="265" y="333" type="line"/>
      <point x="257" y="389"/>
      <point x="248" y="452"/>
      <point x="240" y="508" type="curve"/>
      <point x="3" y="502" type="line"/>
      <point x="25" y="427"/>
      <point x="46" y="355"/>
      <point x="68" y="280" type="curve"/>
      <point x="94" y="191" type="line"/>
      <point x="113" y="127"/>
      <point x="132" y="63"/>
    </contour>
  </outline>
</glyph>
<glyph name="x" format="2">
  <advance width="606"/>
  <unicode hex="0078"/>
  <outline>
    <contour>
      <point x="10" y="0" type="curve"/>
      <point x="252" y="0" type="line"/>
      <point x="260" y="33"/>
      <point x="265" y="54"/>
      <point x="273" y="87" type="curve"/>
      <point x="287" y="147" type="line"/>
      <point x="300" y="147" type="line"/>
      <point x="317" y="83" type="line"/>
      <point x="325" y="53"/>
      <point x="331" y="30"/>
      <point x="339" y="0" type="curve"/>
      <point x="602" y="0" type="line"/>
      <point x="562" y="69"/>
      <point x="538" y="111"/>
      <point x="509" y="161" type="curve"/>
      <point x="438" y="284" type="line"/>
      <point x="450" y="241" type="line"/>
      <point x="514" y="351" type="line"/>
      <point x="544" y="403"/>
      <point x="563" y="435"/>
      <point x="602" y="502" type="curve"/>
      <point x="353" y="502" type="line"/>
      <point x="344" y="468"/>
      <point x="337" y="444"/>
      <point x="328" y="411" type="curve"/>
      <point x="312" y="353" type="line"/>
      <point x="297" y="353" type="line"/>
      <point x="279" y="413" type="line"/>
      <point x="269" y="446"/>
      <point x="260" y="475"/>
      <point x="250" y="508" type="curve"/>
      <point x="4" y="502" type="line"/>
      <point x="38" y="439"/>
      <point x="59" y="400"/>
      <point x="86" y="350" type="curve"/>
      <point x="145" y="241" type="line"/>
      <point x="145" y="284" type="line"/>
      <point x="88" y="164" type="line"/>
      <point x="62" y="110"/>
      <point x="44" y="72"/>
    </contour>
  </outline>
</glyph>
<glyph name="y" format="2">
  <advance width="583"/>
  <unicode hex="0079"/>
  <anchor x="491" y="0" name="bottom"/>
  <anchor x="291" y="502" name="top"/>
  <outline>
    <contour>
      <point x="91" y="-198" type="curve"/>
      <point x="319" y="-192" type="line"/>
      <point x="346" y="-120"/>
      <point x="378" y="-35"/>
      <point x="426" y="92" type="curve"/>
      <point x="479" y="233" type="line"/>
      <point x="526" y="359"/>
      <point x="550" y="421"/>
      <point x="580" y="502" type="curve"/>
      <point x="341" y="502" type="line"/>
      <point x="332" y="446"/>
      <point x="324" y="393"/>
      <point x="315" y="337" type="curve"/>
      <point x="298" y="230" type="line"/>
      <point x="282" y="230" type="line"/>
      <point x="267" y="338" type="line"/>
      <point x="259" y="396"/>
      <point x="251" y="450"/>
      <point x="243" y="508" type="curve"/>
      <point x="3" y="502" type="line"/>
      <point x="27" y="430"/>
      <point x="53" y="354"/>
      <point x="77" y="282" type="curve"/>
      <point x="107" y="192" type="line"/>
      <point x="130" y="125"/>
      <point x="154" y="54"/>
      <point x="177" y="-15" type="curve"/>
      <point x="177" y="21" type="line"/>
      <point x="150" y="-50"/>
      <point x="118" y="-127"/>
    </contour>
  </outline>
</glyph>
<glyph name="z" format="2">
  <advance width="536"/>
  <unicode hex="007A"/>
  <guideline x="195" y="325" angle="232.7447"/>
  <guideline x="340" y="177" angle="52.3443"/>
  <anchor x="267" y="0" name="bottom"/>
  <anchor x="267" y="251" name="center"/>
  <anchor x="267" y="502" name="top"/>
  <outline>
    <contour>
      <point x="24" y="0" type="line"/>
      <point x="512" y="0" type="line"/>
      <point x="512" y="160" type="line"/>
      <point x="463" y="160"/>
      <point x="397" y="160"/>
      <point x="357" y="160" type="curve"/>
      <point x="269" y="160" type="line"/>
      <point x="291" y="113" type="line"/>
      <point x="389" y="240" type="line"/>
      <point x="425" y="287"/>
      <point x="468" y="343"/>
      <point x="499" y="382" type="curve"/>
      <point x="499" y="502" type="line"/>
      <point x="31" y="502" type="line"/>
      <point x="31" y="341" type="line"/>
      <point x="85" y="341"/>
      <point x="154" y="341"/>
      <point x="194" y="341" type="curve"/>
      <point x="276" y="341" type="line"/>
      <point x="249" y="396" type="line"/>
      <point x="141" y="254" type="line"/>
      <point x="105" y="206"/>
      <point x="65" y="154"/>
      <point x="24" y="100" type="curve"/>
    </contour>
  </outline>
</glyph>
<glyph name="currency" format="2">
  <advance width="684"/>
  <unicode hex="00A4"/>
  <outline>
    <contour>
      <point x="341" y="77" type="curve" smooth="yes"/>
      <point x="496" y="77"/>
      <point x="603" y="159"/>
      <point x="603" y="322" type="curve" smooth="yes"/>
      <point x="603" y="463"/>
      <point x="496" y="563"/>
      <point x="343" y="563" type="curve" smooth="yes"/>
      <point x="188" y="563"/>
      <point x="81" y="468"/>
      <point x="81" y="322" type="curve" smooth="yes"/>
      <point x="81" y="160"/>
      <point x="188" y="77"/>
    </contour>
    <contour>
      <point x="153" y="-7" type="line"/>
      <point x="206" y="46"/>
      <point x="256" y="96"/>
      <point x="300" y="140" type="curve"/>
      <point x="162" y="278" type="line"/>
      <point x="118" y="234"/>
      <point x="68" y="184"/>
      <point x="15" y="131" type="curve"/>
    </contour>
    <contour>
      <point x="342" y="253" type="curve"/>
      <point x="302" y="253"/>
      <point x="275" y="277"/>
      <point x="275" y="321" type="curve" smooth="yes"/>
      <point x="275" y="359"/>
      <point x="302" y="388"/>
      <point x="342" y="388" type="curve"/>
      <point x="383" y="388"/>
      <point x="409" y="357"/>
      <point x="409" y="321" type="curve" smooth="yes"/>
      <point x="409" y="277"/>
      <point x="382" y="253"/>
    </contour>
    <contour>
      <point x="164" y="364" type="curve"/>
      <point x="298" y="498" type="line"/>
      <point x="254" y="542"/>
      <point x="204" y="592"/>
      <point x="151" y="645" type="curve"/>
      <point x="17" y="511" type="line"/>
      <point x="70" y="458"/>
      <point x="120" y="408"/>
    </contour>
    <contour>
      <point x="533" y="-5" type="curve"/>
      <point x="667" y="129" type="line"/>
      <point x="614" y="182"/>
      <point x="564" y="232"/>
      <point x="520" y="276" type="curve"/>
      <point x="386" y="142" type="line"/>
      <point x="430" y="98"/>
      <point x="480" y="48"/>
    </contour>
    <contour>
      <point x="522" y="362" type="line"/>
      <point x="566" y="406"/>
      <point x="616" y="456"/>
      <point x="669" y="509" type="curve"/>
      <point x="531" y="647" type="line"/>
      <point x="478" y="594"/>
      <point x="428" y="544"/>
      <point x="384" y="500" type="curve"/>
    </contour>
  </outline>
</glyph>
<glyph name="copyright" format="2">
  <advance width="787"/>
  <unicode hex="00A9"/>
  <outline>
    <contour>
      <point x="397" y="-16" type="curve" smooth="yes"/>
      <point x="638" y="-16"/>
      <point x="763" y="137"/>
      <point x="763" y="345" type="curve" smooth="yes"/>
      <point x="763" y="544"/>
      <point x="645" y="706"/>
      <point x="391" y="706" type="curve" smooth="yes"/>
      <point x="140" y="706"/>
      <point x="24" y="545"/>
      <point x="24" y="344" type="curve" smooth="yes"/>
      <point x="24" y="156"/>
      <point x="133" y="-16"/>
    </contour>
    <contour>
      <point x="411" y="155" type="curve" smooth="yes"/>
      <point x="461" y="155"/>
      <point x="494" y="160"/>
      <point x="521" y="169" type="curve"/>
      <point x="515" y="302" type="line"/>
      <point x="495" y="289"/>
      <point x="473" y="282"/>
      <point x="450" y="282" type="curve"/>
      <point x="402" y="282"/>
      <point x="373" y="307"/>
      <point x="373" y="347" type="curve" smooth="yes"/>
      <point x="373" y="380"/>
      <point x="394" y="402"/>
      <point x="427" y="402" type="curve"/>
      <point x="443" y="402"/>
      <point x="471" y="399"/>
      <point x="512" y="375" type="curve"/>
      <point x="523" y="509" type="line"/>
      <point x="493" y="524"/>
      <point x="447" y="533"/>
      <point x="403" y="533" type="curve" smooth="yes"/>
      <point x="272" y="533"/>
      <point x="211" y="452"/>
      <point x="211" y="342" type="curve" smooth="yes"/>
      <point x="211" y="232"/>
      <point x="283" y="155"/>
    </contour>
    <contour>
      <point x="396" y="97" type="curve"/>
      <point x="213" y="97"/>
      <point x="145" y="215"/>
      <point x="145" y="344" type="curve" smooth="yes"/>
      <point x="145" y="483"/>
      <point x="218" y="593"/>
      <point x="392" y="593" type="curve"/>
      <point x="568" y="593"/>
      <point x="642" y="482"/>
      <point x="642" y="345" type="curve" smooth="yes"/>
      <point x="642" y="203"/>
      <point x="563" y="97"/>
    </contour>
  </outline>
</glyph>
<glyph name="degree" format="2">
  <advance width="543"/>
  <unicode hex="00B0"/>
  <outline>
    <contour>
      <point x="271" y="281" type="curve" smooth="yes"/>
      <point x="418" y="281"/>
      <point x="513" y="359"/>
      <point x="513" y="496" type="curve" smooth="yes"/>
      <point x="513" y="615"/>
      <point x="418" y="706"/>
      <point x="272" y="706" type="curve" smooth="yes"/>
      <point x="125" y="706"/>
      <point x="30" y="615"/>
      <point x="30" y="496" type="curve" smooth="yes"/>
      <point x="30" y="359"/>
      <point x="125" y="281"/>
    </contour>
    <contour>
      <point x="271" y="430" type="curve"/>
      <point x="233" y="430"/>
      <point x="211" y="455"/>
      <point x="211" y="494" type="curve" smooth="yes"/>
      <point x="211" y="528"/>
      <point x="233" y="557"/>
      <point x="272" y="557" type="curve"/>
      <point x="310" y="557"/>
      <point x="332" y="525"/>
      <point x="332" y="494" type="curve" smooth="yes"/>
      <point x="332" y="455"/>
      <point x="310" y="430"/>
    </contour>
  </outline>
</glyph>
<glyph name="plusminus" format="2">
  <advance width="590"/>
  <unicode hex="00B1"/>
  <outline>
    <contour>
      <point x="40" y="0" type="line"/>
      <point x="115" y="0"/>
      <point x="186" y="0"/>
      <point x="248" y="0" type="curve"/>
      <point x="342" y="0" type="line"/>
      <point x="404" y="0"/>
      <point x="475" y="0"/>
      <point x="550" y="0" type="curve"/>
      <point x="550" y="190" type="line"/>
      <point x="475" y="190"/>
      <point x="404" y="190"/>
      <point x="342" y="190" type="curve"/>
      <point x="248" y="190" type="line"/>
      <point x="186" y="190"/>
      <point x="115" y="190"/>
      <point x="40" y="190" type="curve"/>
    </contour>
    <contour>
      <point x="40" y="374" type="line"/>
      <point x="115" y="374"/>
      <point x="186" y="374"/>
      <point x="248" y="374" type="curve"/>
      <point x="342" y="374" type="line"/>
      <point x="404" y="374"/>
      <point x="475" y="374"/>
      <point x="550" y="374" type="curve"/>
      <point x="550" y="564" type="line"/>
      <point x="475" y="564"/>
      <point x="404" y="564"/>
      <point x="342" y="564" type="curve"/>
      <point x="248" y="564" type="line"/>
      <point x="186" y="564"/>
      <point x="115" y="564"/>
      <point x="40" y="564" type="curve"/>
    </contour>
    <contour>
      <point x="197" y="224" type="curve"/>
      <point x="393" y="224" type="line"/>
      <point x="393" y="299"/>
      <point x="393" y="370"/>
      <point x="393" y="432" type="curve"/>
      <point x="393" y="506" type="line"/>
      <point x="393" y="568"/>
      <point x="393" y="639"/>
      <point x="393" y="714" type="curve"/>
      <point x="197" y="714" type="line"/>
      <point x="197" y="639"/>
      <point x="197" y="568"/>
      <point x="197" y="506" type="curve"/>
      <point x="197" y="432" type="line"/>
      <point x="197" y="370"/>
      <point x="197" y="299"/>
    </contour>
  </outline>
</glyph>
<glyph name="micro" format="2">
  <advance width="589"/>
  <unicode hex="00B5"/>
  <outline>
    <contour>
      <point x="35" y="-198" type="curve"/>
      <point x="257" y="-192" type="line"/>
      <point x="257" y="-123"/>
      <point x="257" y="-63"/>
      <point x="257" y="8" type="curve"/>
      <point x="257" y="19" type="line"/>
      <point x="154" y="19" type="line"/>
      <point x="173" y="-6"/>
      <point x="199" y="-16"/>
      <point x="229" y="-16" type="curve" smooth="yes"/>
      <point x="281" y="-16"/>
      <point x="317" y="18"/>
      <point x="343" y="71" type="curve"/>
      <point x="360" y="71" type="line"/>
      <point x="370" y="0" type="line"/>
      <point x="554" y="0" type="line"/>
      <point x="554" y="69"/>
      <point x="554" y="134"/>
      <point x="554" y="190" type="curve"/>
      <point x="554" y="273" type="line"/>
      <point x="554" y="373"/>
      <point x="554" y="433"/>
      <point x="554" y="502" type="curve"/>
      <point x="332" y="502" type="line"/>
      <point x="332" y="433"/>
      <point x="332" y="373"/>
      <point x="332" y="303" type="curve"/>
      <point x="332" y="206" type="line"/>
      <point x="321" y="191"/>
      <point x="306" y="179"/>
      <point x="289" y="179" type="curve" smooth="yes"/>
      <point x="265" y="179"/>
      <point x="257" y="197"/>
      <point x="257" y="232" type="curve"/>
      <point x="257" y="303" type="line"/>
      <point x="257" y="373"/>
      <point x="257" y="439"/>
      <point x="257" y="508" type="curve"/>
      <point x="35" y="502" type="line"/>
      <point x="35" y="433"/>
      <point x="35" y="383"/>
      <point x="35" y="273" type="curve"/>
      <point x="35" y="21" type="line"/>
      <point x="35" y="-63"/>
      <point x="35" y="-129"/>
    </contour>
  </outline>
</glyph>
<glyph name="ordmasculine" format="2">
  <advance width="454"/>
  <unicode hex="00BA"/>
  <outline>
    <contour>
      <point x="229" y="324" type="curve" smooth="yes"/>
      <point x="366" y="324"/>
      <point x="439" y="410"/>
      <point x="439" y="527" type="curve" smooth="yes"/>
      <point x="439" y="640"/>
      <point x="372" y="729"/>
      <point x="225" y="729" type="curve" smooth="yes"/>
      <point x="82" y="729"/>
      <point x="15" y="640"/>
      <point x="15" y="527" type="curve" smooth="yes"/>
      <point x="15" y="420"/>
      <point x="78" y="324"/>
    </contour>
    <contour>
      <point x="228" y="453" type="curve"/>
      <point x="197" y="453"/>
      <point x="179" y="488"/>
      <point x="179" y="527" type="curve" smooth="yes"/>
      <point x="179" y="569"/>
      <point x="197" y="600"/>
      <point x="228" y="600" type="curve"/>
      <point x="254" y="600"/>
      <point x="274" y="575"/>
      <point x="274" y="527" type="curve" smooth="yes"/>
      <point x="274" y="489"/>
      <point x="260" y="453"/>
    </contour>
  </outline>
</glyph>
<glyph name="Oslash" format="2">
  <advance width="811"/>
  <unicode hex="00D8"/>
  <anchor x="406" y="0" name="bottom"/>
  <anchor x="406" y="357" name="center"/>
  <anchor x="531" y="0" name="ogonek"/>
  <anchor x="406" y="713" name="top"/>
  <anchor x="24" y="713" name="topleft"/>
  <anchor x="696" y="713" name="topright"/>
  <outline>
    <contour>
      <point x="409" y="-16" type="curve" smooth="yes"/>
      <point x="661" y="-16"/>
      <point x="787" y="142"/>
      <point x="787" y="356" type="curve" smooth="yes"/>
      <point x="787" y="562"/>
      <point x="668" y="729"/>
      <point x="403" y="729" type="curve" smooth="yes"/>
      <point x="141" y="729"/>
      <point x="24" y="563"/>
      <point x="24" y="355" type="curve" smooth="yes"/>
      <point x="24" y="161"/>
      <point x="134" y="-16"/>
    </contour>
    <contour>
      <point x="406" y="182" type="curve"/>
      <point x="327" y="182"/>
      <point x="280" y="260"/>
      <point x="280" y="356" type="curve" smooth="yes"/>
      <point x="280" y="455"/>
      <point x="330" y="531"/>
      <point x="406" y="531" type="curve"/>
      <point x="479" y="531"/>
      <point x="531" y="455"/>
      <point x="531" y="356" type="curve" smooth="yes"/>
      <point x="531" y="260"/>
      <point x="484" y="182"/>
    </contour>
    <contour>
      <point x="157" y="-88" type="line"/>
      <point x="223" y="-2"/>
      <point x="284" y="78"/>
      <point x="356" y="172" type="curve"/>
      <point x="555" y="433" type="line"/>
      <point x="628" y="528"/>
      <point x="687" y="606"/>
      <point x="755" y="695" type="curve"/>
      <point x="646" y="777" type="line"/>
      <point x="579" y="689"/>
      <point x="519" y="611"/>
      <point x="446" y="515" type="curve"/>
      <point x="250" y="259" type="line"/>
      <point x="179" y="166"/>
      <point x="122" y="92"/>
      <point x="52" y="0" type="curve"/>
    </contour>
  </outline>
</glyph>
<glyph name="germandbls" format="2">
  <advance width="620"/>
  <unicode hex="00DF"/>
  <outline>
    <contour>
      <point x="386" y="-6" type="curve" smooth="yes"/>
      <point x="518" y="-6"/>
      <point x="600" y="78"/>
      <point x="600" y="205" type="curve" smooth="yes"/>
      <point x="600" y="297"/>
      <point x="562" y="361"/>
      <point x="486" y="396" type="curve"/>
      <point x="486" y="411" type="line"/>
      <point x="541" y="437"/>
      <point x="572" y="490"/>
      <point x="572" y="561" type="curve" smooth="yes"/>
      <point x="572" y="680"/>
      <point x="481" y="749"/>
      <point x="326" y="749" type="curve" smooth="yes"/>
      <point x="157" y="749"/>
      <point x="62" y="665"/>
      <point x="62" y="514" type="curve" smooth="yes"/>
      <point x="62" y="430"/>
      <point x="62" y="347"/>
      <point x="62" y="263" type="curve"/>
      <point x="62" y="213" type="line"/>
      <point x="62" y="129"/>
      <point x="62" y="69"/>
      <point x="62" y="0" type="curve"/>
      <point x="284" y="0" type="line"/>
      <point x="284" y="69"/>
      <point x="284" y="129"/>
      <point x="284" y="213" type="curve"/>
      <point x="284" y="528" type="line" smooth="yes"/>
      <point x="284" y="559"/>
      <point x="300" y="570"/>
      <point x="318" y="570" type="curve"/>
      <point x="349" y="570"/>
      <point x="365" y="539"/>
      <point x="365" y="504" type="curve" smooth="yes"/>
      <point x="365" y="472"/>
      <point x="349" y="439"/>
      <point x="322" y="439" type="curve"/>
      <point x="322" y="280" type="line"/>
      <point x="356" y="280"/>
      <point x="373" y="250"/>
      <point x="373" y="212" type="curve" smooth="yes"/>
      <point x="373" y="187"/>
      <point x="365" y="151"/>
      <point x="327" y="151" type="curve"/>
      <point x="325" y="151"/>
      <point x="324" y="151"/>
      <point x="322" y="151" type="curve"/>
      <point x="322" y="0" type="line"/>
      <point x="341" y="-4"/>
      <point x="366" y="-6"/>
    </contour>
    <contour>
      <point x="12" y="339" type="line"/>
      <point x="125" y="339" type="line"/>
      <point x="125" y="502" type="line"/>
      <point x="12" y="502" type="line"/>
    </contour>
  </outline>
</glyph>
<glyph name="ae" format="2">
  <advance width="797"/>
  <unicode hex="00E6"/>
  <anchor x="400" y="0" name="bottom"/>
  <anchor x="400" y="502" name="top"/>
  <outline>
    <contour>
      <point x="584" y="-16" type="curve" smooth="yes"/>
      <point x="669" y="-16"/>
      <point x="730" y="-1"/>
      <point x="770" y="14" type="curve"/>
      <point x="763" y="196" type="line"/>
      <point x="715" y="174"/>
      <point x="645" y="163"/>
      <point x="613" y="163" type="curve" smooth="yes"/>
      <point x="530" y="163"/>
      <point x="497" y="191"/>
      <point x="497" y="248" type="curve"/>
      <point x="497" y="287" type="line"/>
      <point x="497" y="352"/>
      <point x="521" y="377"/>
      <point x="546" y="377" type="curve"/>
      <point x="570" y="377"/>
      <point x="587" y="348"/>
      <point x="587" y="303" type="curve" smooth="yes"/>
      <point x="587" y="296"/>
      <point x="586" y="287"/>
      <point x="585" y="279" type="curve"/>
      <point x="772" y="218" type="line"/>
      <point x="775" y="239"/>
      <point x="777" y="259"/>
      <point x="777" y="288" type="curve" smooth="yes"/>
      <point x="777" y="449"/>
      <point x="692" y="518"/>
      <point x="544" y="518" type="curve" smooth="yes"/>
      <point x="358" y="518"/>
      <point x="309" y="408"/>
      <point x="309" y="251" type="curve" smooth="yes"/>
      <point x="309" y="94"/>
      <point x="394" y="-16"/>
    </contour>
    <contour>
      <point x="253" y="153" type="curve" smooth="yes"/>
      <point x="239" y="153"/>
      <point x="223" y="163"/>
      <point x="223" y="186" type="curve" smooth="yes"/>
      <point x="223" y="210"/>
      <point x="240" y="220"/>
      <point x="255" y="226" type="curve" smooth="yes"/>
      <point x="277" y="235"/>
      <point x="285" y="241"/>
      <point x="293" y="250" type="curve"/>
      <point x="293" y="179" type="line"/>
      <point x="282" y="164"/>
      <point x="267" y="153"/>
    </contour>
    <contour>
      <point x="182" y="-14" type="curve" smooth="yes"/>
      <point x="284" y="-14"/>
      <point x="355" y="20"/>
      <point x="420" y="125" type="curve"/>
      <point x="430" y="256" type="line"/>
      <point x="459" y="333" type="line"/>
      <point x="459" y="464"/>
      <point x="397" y="518"/>
      <point x="264" y="518" type="curve" smooth="yes"/>
      <point x="166" y="518"/>
      <point x="88" y="495"/>
      <point x="41" y="479" type="curve"/>
      <point x="50" y="297" type="line"/>
      <point x="106" y="326"/>
      <point x="172" y="339"/>
      <point x="218" y="339" type="curve" smooth="yes"/>
      <point x="277" y="339"/>
      <point x="300" y="325"/>
      <point x="299" y="308" type="curve"/>
      <point x="171" y="284" type="line" smooth="yes"/>
      <point x="119" y="274"/>
      <point x="18" y="244"/>
      <point x="18" y="126" type="curve" smooth="yes"/>
      <point x="18" y="52"/>
      <point x="59" y="-14"/>
    </contour>
    <contour>
      <point x="382" y="218" type="line"/>
      <point x="772" y="218" type="line"/>
      <point x="772" y="298" type="line"/>
      <point x="645" y="310" type="line"/>
      <point x="382" y="300" type="line"/>
    </contour>
  </outline>
</glyph>
<glyph name="divide" format="2">
  <advance width="590"/>
  <unicode hex="00F7"/>
  <outline>
    <contour>
      <point x="40" y="214" type="line"/>
      <point x="115" y="214"/>
      <point x="186" y="214"/>
      <point x="248" y="214" type="curve"/>
      <point x="342" y="214" type="line"/>
      <point x="404" y="214"/>
      <point x="475" y="214"/>
      <point x="550" y="214" type="curve"/>
      <point x="550" y="404" type="line"/>
      <point x="475" y="404"/>
      <point x="404" y="404"/>
      <point x="342" y="404" type="curve"/>
      <point x="248" y="404" type="line"/>
      <point x="186" y="404"/>
      <point x="115" y="404"/>
      <point x="40" y="404" type="curve"/>
    </contour>
    <contour>
      <point x="293" y="-6" type="curve" smooth="yes"/>
      <point x="358" y="-6"/>
      <point x="397" y="38"/>
      <point x="397" y="94" type="curve" smooth="yes"/>
      <point x="397" y="149"/>
      <point x="358" y="191"/>
      <point x="294" y="191" type="curve" smooth="yes"/>
      <point x="230" y="191"/>
      <point x="191" y="149"/>
      <point x="191" y="94" type="curve" smooth="yes"/>
      <point x="191" y="38"/>
      <point x="230" y="-6"/>
    </contour>
    <contour>
      <point x="293.48" y="426.88" type="curve" smooth="yes"/>
      <point x="358.16" y="426.88"/>
      <point x="396.8" y="471.4"/>
      <point x="396.8" y="526.84" type="curve" smooth="yes"/>
      <point x="396.8" y="582.28"/>
      <point x="358.16" y="624.28"/>
      <point x="294.32" y="624.28" type="curve" smooth="yes"/>
      <point x="229.64" y="624.28"/>
      <point x="191" y="582.28"/>
      <point x="191" y="526.84" type="curve" smooth="yes"/>
      <point x="191" y="471.4"/>
      <point x="229.64" y="426.88"/>
    </contour>
  </outline>
</glyph>
<glyph name="hbar" format="2">
  <advance width="584"/>
  <unicode hex="0127"/>
  <outline>
    <contour>
      <point x="-20" y="550" type="line"/>
      <point x="43" y="550"/>
      <point x="103" y="550"/>
      <point x="156" y="550" type="curve"/>
      <point x="204" y="550" type="line"/>
      <point x="257" y="550"/>
      <point x="317" y="550"/>
      <point x="380" y="550" type="curve"/>
      <point x="380" y="691" type="line"/>
      <point x="317" y="691"/>
      <point x="257" y="691"/>
      <point x="204" y="691" type="curve"/>
      <point x="156" y="691" type="line"/>
      <point x="103" y="691"/>
      <point x="43" y="691"/>
      <point x="-20" y="691" type="curve"/>
    </contour>
    <contour>
      <point x="35" y="0" type="curve"/>
      <point x="257" y="0" type="line"/>
      <point x="257" y="69"/>
      <point x="257" y="129"/>
      <point x="257" y="200" type="curve"/>
      <point x="257" y="291" type="line"/>
      <point x="268" y="306"/>
      <point x="283" y="318"/>
      <point x="300" y="318" type="curve" smooth="yes"/>
      <point x="324" y="318"/>
      <point x="332" y="300"/>
      <point x="332" y="265" type="curve"/>
      <point x="332" y="200" type="line"/>
      <point x="332" y="129"/>
      <point x="332" y="69"/>
      <point x="332" y="0" type="curve"/>
      <point x="554" y="0" type="line"/>
      <point x="554" y="69"/>
      <point x="554" y="129"/>
      <point x="554" y="213" type="curve"/>
      <point x="554" y="255"/>
      <point x="554" y="297"/>
      <point x="554" y="342" type="curve" smooth="yes"/>
      <point x="554" y="461"/>
      <point x="496" y="518"/>
      <point x="402" y="518" type="curve" smooth="yes"/>
      <point x="344" y="518"/>
      <point x="304" y="490"/>
      <point x="274" y="447" type="curve"/>
      <point x="257" y="447" type="line"/>
      <point x="257" y="493" type="line"/>
      <point x="257" y="589"/>
      <point x="257" y="673"/>
      <point x="257" y="750" type="curve"/>
      <point x="35" y="734" type="line"/>
      <point x="35" y="651"/>
      <point x="35" y="572"/>
      <point x="35" y="493" type="curve"/>
      <point x="35" y="213" type="line"/>
      <point x="35" y="129"/>
      <point x="35" y="69"/>
    </contour>
  </outline>
</glyph>
<glyph name="idotless" format="2">
  <advance width="302"/>
  <unicode hex="0131"/>
  <anchor x="151" y="0" name="bottom"/>
  <anchor x="262" y="0" name="ogonek"/>
  <anchor x="151" y="502" name="top"/>
  <outline>
    <contour>
      <point x="40" y="0" type="curve"/>
      <point x="262" y="0" type="line"/>
      <point x="262" y="69"/>
      <point x="262" y="129"/>
      <point x="262" y="213" type="curve"/>
      <point x="262" y="263" type="line"/>
      <point x="262" y="373"/>
      <point x="262" y="433"/>
      <point x="262" y="502" type="curve"/>
      <point x="40" y="502" type="line"/>
      <point x="40" y="433"/>
      <point x="40" y="373"/>
      <point x="40" y="263" type="curve"/>
      <point x="40" y="213" type="line"/>
      <point x="40" y="129"/>
      <point x="40" y="69"/>
    </contour>
  </outline>
</glyph>
<glyph name="lslash" format="2">
  <advance width="412"/>
  <unicode hex="0142"/>
  <outline>
    <contour>
      <point x="24" y="235" type="line"/>
      <point x="88" y="254"/>
      <point x="146" y="271"/>
      <point x="200" y="287" type="curve"/>
      <point x="248" y="301" type="line"/>
      <point x="302" y="317"/>
      <point x="362" y="335"/>
      <point x="426" y="354" type="curve"/>
      <point x="386" y="488" type="line"/>
      <point x="322" y="469"/>
      <point x="262" y="451"/>
      <point x="208" y="435" type="curve"/>
      <point x="160" y="421" type="line"/>
      <point x="105" y="405"/>
      <point x="47" y="388"/>
      <point x="-16" y="369" type="curve"/>
    </contour>
    <contour>
      <point x="95" y="0" type="curve"/>
      <point x="317" y="0" type="line"/>
      <point x="317" y="69"/>
      <point x="317" y="129"/>
      <point x="317" y="213" type="curve"/>
      <point x="317" y="493" type="line"/>
      <point x="317" y="589"/>
      <point x="317" y="673"/>
      <point x="317" y="750" type="curve"/>
      <point x="95" y="734" type="line"/>
      <point x="95" y="651"/>
      <point x="95" y="572"/>
      <point x="95" y="493" type="curve"/>
      <point x="95" y="213" type="line"/>
      <point x="95" y="129"/>
      <point x="95" y="69"/>
    </contour>
  </outline>
</glyph>
<glyph name="Eng" format="2">
  <advance width="746"/>
  <unicode hex="014A"/>
  <outline>
    <contour>
      <point x="390" y="-192" type="curve"/>
      <point x="612" y="-192" type="line"/>
      <point x="665" y="-145"/>
      <point x="700" y="-75"/>
      <point x="700" y="39" type="curve" smooth="yes"/>
      <point x="700" y="129"/>
      <point x="700" y="227"/>
      <point x="700" y="327" type="curve"/>
      <point x="700" y="474" type="line"/>
      <point x="700" y="569"/>
      <point x="700" y="636"/>
      <point x="700" y="713" type="curve"/>
      <point x="471" y="713" type="line"/>
      <point x="471" y="636"/>
      <point x="471" y="569"/>
      <point x="471" y="474" type="curve"/>
      <point x="471" y="409" type="line"/>
      <point x="454" y="409" type="line"/>
      <point x="380" y="524" type="line"/>
      <point x="340" y="585"/>
      <point x="304" y="641"/>
      <point x="257" y="713" type="curve"/>
      <point x="46" y="713" type="line"/>
      <point x="46" y="636"/>
      <point x="46" y="569"/>
      <point x="46" y="474" type="curve"/>
      <point x="46" y="229" type="line"/>
      <point x="46" y="138"/>
      <point x="46" y="74"/>
      <point x="46" y="0" type="curve"/>
      <point x="275" y="0" type="line"/>
      <point x="275" y="74"/>
      <point x="275" y="138"/>
      <point x="275" y="229" type="curve"/>
      <point x="275" y="304" type="line"/>
      <point x="291" y="304" type="line"/>
      <point x="368" y="188" type="line"/>
      <point x="415" y="117"/>
      <point x="453" y="59"/>
      <point x="491" y="0" type="curve"/>
      <point x="531" y="0" type="line"/>
      <point x="454" y="108" type="line"/>
      <point x="454" y="51" type="line"/>
      <point x="454" y="-34"/>
      <point x="437" y="-117"/>
    </contour>
  </outline>
</glyph>
<glyph name="tbar" format="2">
  <advance width="436"/>
  <unicode hex="0167"/>
  <outline>
    <contour>
      <point x="30" y="184" type="line"/>
      <point x="88" y="184"/>
      <point x="144" y="184"/>
      <point x="193" y="184" type="curve"/>
      <point x="237" y="184" type="line"/>
      <point x="286" y="184"/>
      <point x="342" y="184"/>
      <point x="400" y="184" type="curve"/>
      <point x="400" y="315" type="line"/>
      <point x="342" y="315"/>
      <point x="286" y="315"/>
      <point x="237" y="315" type="curve"/>
      <point x="193" y="315" type="line"/>
      <point x="144" y="315"/>
      <point x="88" y="315"/>
      <point x="30" y="315" type="curve"/>
    </contour>
    <contour>
      <point x="276" y="-16" type="curve" smooth="yes"/>
      <point x="326" y="-16"/>
      <point x="386" y="-9"/>
      <point x="417" y="8" type="curve"/>
      <point x="407" y="162" type="line"/>
      <point x="383" y="147"/>
      <point x="361" y="141"/>
      <point x="344" y="141" type="curve" smooth="yes"/>
      <point x="307" y="141"/>
      <point x="296" y="168"/>
      <point x="296" y="217" type="curve" smooth="yes"/>
      <point x="296" y="450" type="line"/>
      <point x="296" y="550"/>
      <point x="296" y="619"/>
      <point x="296" y="701" type="curve"/>
      <point x="77" y="665" type="line"/>
      <point x="77" y="596"/>
      <point x="77" y="534"/>
      <point x="77" y="450" type="curve"/>
      <point x="77" y="285"/>
      <point x="77" y="216"/>
      <point x="77" y="160" type="curve" smooth="yes"/>
      <point x="77" y="27"/>
      <point x="153" y="-16"/>
    </contour>
    <contour>
      <point x="12" y="339" type="line"/>
      <point x="145" y="339" type="line"/>
      <point x="247" y="339" type="line"/>
      <point x="300" y="339"/>
      <point x="359" y="339"/>
      <point x="417" y="339" type="curve"/>
      <point x="417" y="502" type="line"/>
      <point x="12" y="502" type="line"/>
    </contour>
  </outline>
</glyph>
<glyph name="jdotless" format="2">
  <advance width="302"/>
  <unicode hex="0237"/>
  <anchor x="162" y="-192" name="bottom"/>
  <anchor x="154" y="502" name="top"/>
  <outline>
    <contour>
      <point x="-24" y="-198" type="curve"/>
      <point x="182" y="-192" type="line"/>
      <point x="239" y="-148"/>
      <point x="262" y="-72"/>
      <point x="262" y="24" type="curve" smooth="yes"/>
      <point x="262" y="110"/>
      <point x="262" y="181"/>
      <point x="262" y="263" type="curve"/>
      <point x="262" y="373"/>
      <point x="262" y="433"/>
      <point x="262" y="502" type="curve"/>
      <point x="40" y="502" type="line"/>
      <point x="40" y="433"/>
      <point x="40" y="373"/>
      <point x="40" y="263" type="curve"/>
      <point x="40" y="213" type="line"/>
      <point x="40" y="45" type="line"/>
      <point x="40" y="-41"/>
      <point x="23" y="-133"/>
    </contour>
  </outline>
</glyph>
<glyph name="ringhalfright" format="2">
  <advance width="201"/>
  <unicode hex="02BE"/>
  <outline>
    <contour>
      <point x="20" y="538" type="line"/>
      <point x="115" y="538"/>
      <point x="176" y="581"/>
      <point x="176" y="674" type="curve" smooth="yes"/>
      <point x="176" y="751"/>
      <point x="115" y="806"/>
      <point x="21" y="806" type="curve"/>
      <point x="21" y="722" type="line"/>
      <point x="53" y="722"/>
      <point x="72" y="697"/>
      <point x="72" y="673" type="curve" smooth="yes"/>
      <point x="72" y="642"/>
      <point x="53" y="623"/>
      <point x="20" y="623" type="curve"/>
    </contour>
  </outline>
</glyph>
<glyph name="verticallinemod" format="2">
  <advance width="230"/>
  <unicode hex="02C8"/>
  <outline>
    <contour>
      <point x="30" y="502" type="curve"/>
      <point x="200" y="502" type="line"/>
      <point x="200" y="598"/>
      <point x="200" y="687"/>
      <point x="200" y="779" type="curve"/>
      <point x="30" y="779" type="line"/>
      <point x="30" y="687"/>
      <point x="30" y="598"/>
    </contour>
  </outline>
</glyph>
<glyph name="circumflexcomb" format="2">
  <unicode hex="0302"/>
  <anchor x="300" y="502" name="_top"/>
  <anchor x="300" y="755" name="top"/>
  <outline>
    <contour>
      <point x="366" y="552" type="curve"/>
      <point x="522" y="554" type="line"/>
      <point x="485" y="626"/>
      <point x="449" y="699"/>
      <point x="411" y="774" type="curve"/>
      <point x="208" y="774" type="line"/>
      <point x="263" y="698"/>
      <point x="316" y="624"/>
    </contour>
    <contour>
      <point x="78" y="554" type="curve"/>
      <point x="236" y="554" type="line"/>
      <point x="285" y="625"/>
      <point x="338" y="699"/>
      <point x="392" y="774" type="curve"/>
      <point x="189" y="774" type="line"/>
      <point x="151" y="699"/>
      <point x="115" y="626"/>
    </contour>
  </outline>
</glyph>
<glyph name="macroncomb" format="2">
  <unicode hex="0304"/>
  <anchor x="300" y="502" name="_top"/>
  <anchor x="300" y="717" name="top"/>
  <outline>
    <contour>
      <point x="114" y="563" type="line"/>
      <point x="170" y="563"/>
      <point x="232" y="563"/>
      <point x="300" y="563" type="curve"/>
      <point x="368" y="563"/>
      <point x="430" y="563"/>
      <point x="486" y="563" type="curve"/>
      <point x="486" y="723" type="line"/>
      <point x="430" y="723"/>
      <point x="368" y="723"/>
      <point x="300" y="723" type="curve"/>
      <point x="232" y="723"/>
      <point x="170" y="723"/>
      <point x="114" y="723" type="curve"/>
    </contour>
  </outline>
</glyph>
<glyph name="ringcomb" format="2">
  <unicode hex="030A"/>
  <anchor x="300" y="502" name="_top"/>
  <anchor x="320" y="691" name="top"/>
  <outline>
    <contour>
      <point x="299" y="538" type="curve" smooth="yes"/>
      <point x="394" y="538"/>
      <point x="455" y="581"/>
      <point x="455" y="674" type="curve" smooth="yes"/>
      <point x="455" y="751"/>
      <point x="394" y="806"/>
      <point x="300" y="806" type="curve" smooth="yes"/>
      <point x="205" y="806"/>
      <point x="144" y="755"/>
      <point x="144" y="674" type="curve" smooth="yes"/>
      <point x="144" y="582"/>
      <point x="205" y="538"/>
    </contour>
    <contour>
      <point x="299" y="623" type="curve"/>
      <point x="267" y="623"/>
      <point x="248" y="642"/>
      <point x="248" y="673" type="curve" smooth="yes"/>
      <point x="248" y="699"/>
      <point x="267" y="722"/>
      <point x="300" y="722" type="curve"/>
      <point x="332" y="722"/>
      <point x="351" y="697"/>
      <point x="351" y="673" type="curve" smooth="yes"/>
      <point x="351" y="642"/>
      <point x="332" y="623"/>
    </contour>
  </outline>
</glyph>
<glyph name="hungarumlautcomb" format="2">
  <unicode hex="030B"/>
  <anchor x="300" y="502" name="_top"/>
  <anchor x="300" y="767" name="top"/>
  <outline>
    <contour>
      <point x="320" y="553" type="curve"/>
      <point x="469" y="555" type="line"/>
      <point x="521" y="624"/>
      <point x="577" y="699"/>
      <point x="635" y="776" type="curve"/>
      <point x="425" y="771" type="line"/>
      <point x="390" y="698"/>
      <point x="355" y="626"/>
    </contour>
    <contour>
      <point x="90" y="553" type="curve"/>
      <point x="231" y="555" type="line"/>
      <point x="274" y="624"/>
      <point x="321" y="699"/>
      <point x="369" y="776" type="curve"/>
      <point x="169" y="771" type="line"/>
      <point x="142" y="698"/>
      <point x="116" y="626"/>
    </contour>
  </outline>
</glyph>
<glyph name="dotbelowcomb" format="2">
  <unicode hex="0323"/>
  <anchor x="300" y="0" name="_bottom"/>
  <anchor x="300" y="0" name="bottom"/>
  <outline>
    <contour>
      <point x="300" y="-251" type="curve" smooth="yes"/>
      <point x="378" y="-251"/>
      <point x="425" y="-220"/>
      <point x="425" y="-142" type="curve" smooth="yes"/>
      <point x="425" y="-78"/>
      <point x="378" y="-36"/>
      <point x="301" y="-36" type="curve" smooth="yes"/>
      <point x="223" y="-36"/>
      <point x="176" y="-75"/>
      <point x="176" y="-142" type="curve" smooth="yes"/>
      <point x="176" y="-220"/>
      <point x="223" y="-251"/>
    </contour>
  </outline>
</glyph>
<glyph name="dieresisbelowcomb" format="2">
  <unicode hex="0324"/>
  <anchor x="300" y="0" name="_bottom"/>
  <outline>
    <contour>
      <point x="421" y="-241" type="curve" smooth="yes"/>
      <point x="488" y="-241"/>
      <point x="527" y="-207"/>
      <point x="527" y="-137" type="curve" smooth="yes"/>
      <point x="527" y="-81"/>
      <point x="488" y="-36"/>
      <point x="422" y="-36" type="curve" smooth="yes"/>
      <point x="355" y="-36"/>
      <point x="316" y="-78"/>
      <point x="316" y="-137" type="curve" smooth="yes"/>
      <point x="316" y="-207"/>
      <point x="355" y="-241"/>
    </contour>
    <contour>
      <point x="177" y="-241" type="curve" smooth="yes"/>
      <point x="244" y="-241"/>
      <point x="283" y="-207"/>
      <point x="283" y="-137" type="curve" smooth="yes"/>
      <point x="283" y="-81"/>
      <point x="244" y="-36"/>
      <point x="178" y="-36" type="curve" smooth="yes"/>
      <point x="111" y="-36"/>
      <point x="72" y="-78"/>
      <point x="72" y="-137" type="curve" smooth="yes"/>
      <point x="72" y="-207"/>
      <point x="111" y="-241"/>
    </contour>
  </outline>
</glyph>
<glyph name="commaaccentcomb" format="2">
  <unicode hex="0326"/>
  <anchor x="300" y="0" name="_bottom"/>
  <anchor x="300" y="-293" name="bottom"/>
  <outline>
    <contour>
      <point x="188" y="-293" type="curve"/>
      <point x="274" y="-291" type="line"/>
      <point x="362" y="-254"/>
      <point x="412" y="-195"/>
      <point x="412" y="-120" type="curve" smooth="yes"/>
      <point x="412" y="-72"/>
      <point x="375" y="-40"/>
      <point x="306" y="-36" type="curve"/>
      <point x="211" y="-45" type="line"/>
      <point x="211" y="-82"/>
      <point x="211" y="-119"/>
      <point x="211" y="-156" type="curve"/>
      <point x="211" y="-203"/>
      <point x="207" y="-249"/>
    </contour>
  </outline>
</glyph>
<glyph name="cedillacomb" format="2">
  <unicode hex="0327"/>
  <anchor x="300" y="0" name="_bottom"/>
  <outline>
    <contour>
      <point x="269" y="-228" type="curve" smooth="yes"/>
      <point x="399" y="-228"/>
      <point x="442" y="-187"/>
      <point x="442" y="-133" type="curve" smooth="yes"/>
      <point x="442" y="-84"/>
      <point x="416" y="-55"/>
      <point x="353" y="-40" type="curve"/>
      <point x="370" y="0" type="line"/>
      <point x="370" y="36" type="line"/>
      <point x="260" y="36" type="line"/>
      <point x="227" y="-42" type="line"/>
      <point x="262" y="-56"/>
      <point x="275" y="-66"/>
      <point x="275" y="-83" type="curve" smooth="yes"/>
      <point x="275" y="-101"/>
      <point x="259" y="-108"/>
      <point x="232" y="-108" type="curve"/>
      <point x="215" y="-108"/>
      <point x="200" y="-105"/>
      <point x="193" y="-103" type="curve"/>
      <point x="193" y="-218" type="line"/>
      <point x="208" y="-224"/>
      <point x="237" y="-228"/>
    </contour>
  </outline>
</glyph>
<glyph name="slashlongcomb" format="2">
  <unicode hex="0338"/>
  <anchor x="306" y="357" name="_center"/>
  <outline>
    <contour>
      <point x="57" y="-88" type="line"/>
      <point x="123" y="-2"/>
      <point x="184" y="78"/>
      <point x="256" y="172" type="curve"/>
      <point x="455" y="433" type="line"/>
      <point x="528" y="528"/>
      <point x="587" y="606"/>
      <point x="655" y="695" type="curve"/>
      <point x="546" y="777" type="line"/>
      <point x="479" y="689"/>
      <point x="419" y="611"/>
      <point x="346" y="515" type="curve"/>
      <point x="150" y="259" type="line"/>
      <point x="79" y="166"/>
      <point x="22" y="92"/>
      <point x="-48" y="0" type="curve"/>
    </contour>
  </outline>
</glyph>
<glyph name="pi" format="2">
  <advance width="648"/>
  <unicode hex="03C0"/>
  <outline>
    <contour>
      <point x="362" y="0" type="curve"/>
      <point x="577" y="0" type="line"/>
      <point x="577" y="70"/>
      <point x="577" y="138"/>
      <point x="577" y="204" type="curve"/>
      <point x="577" y="502" type="line"/>
      <point x="362" y="502" type="line"/>
      <point x="362" y="354"/>
      <point x="362" y="259"/>
      <point x="362" y="165" type="curve"/>
      <point x="362" y="105"/>
      <point x="362" y="45"/>
    </contour>
    <contour>
      <point x="76" y="0" type="curve"/>
      <point x="291" y="0" type="line"/>
      <point x="291" y="69"/>
      <point x="291" y="129"/>
      <point x="291" y="200" type="curve"/>
      <point x="291" y="263" type="line"/>
      <point x="291" y="343"/>
      <point x="291" y="422"/>
      <point x="291" y="502" type="curve"/>
      <point x="76" y="502" type="line"/>
      <point x="76" y="433"/>
      <point x="76" y="373"/>
      <point x="76" y="263" type="curve"/>
      <point x="76" y="213" type="line"/>
      <point x="76" y="129"/>
      <point x="76" y="69"/>
    </contour>
    <contour>
      <point x="12" y="339" type="line"/>
      <point x="145" y="339" type="line"/>
      <point x="458" y="339" type="line"/>
      <point x="511" y="339"/>
      <point x="570" y="339"/>
      <point x="628" y="339" type="curve"/>
      <point x="628" y="502" type="line"/>
      <point x="12" y="502" type="line"/>
    </contour>
  </outline>
</glyph>
<glyph name="Germandbls" format="2">
  <advance width="741"/>
  <unicode hex="1E9E"/>
  <outline>
    <contour>
      <point x="426" y="-6" type="curve" smooth="yes"/>
      <point x="649" y="-6"/>
      <point x="719" y="79"/>
      <point x="719" y="212" type="curve" smooth="yes"/>
      <point x="719" y="344"/>
      <point x="646" y="409"/>
      <point x="468" y="438" type="curve"/>
      <point x="468" y="347" type="line"/>
      <point x="558" y="402" type="line"/>
      <point x="592" y="423"/>
      <point x="626" y="444"/>
      <point x="660" y="465" type="curve"/>
      <point x="677" y="653" type="line"/>
      <point x="613" y="692"/>
      <point x="491" y="729"/>
      <point x="363" y="729" type="curve" smooth="yes"/>
      <point x="135" y="729"/>
      <point x="43" y="627"/>
      <point x="43" y="439" type="curve" smooth="yes"/>
      <point x="43" y="369"/>
      <point x="43" y="299"/>
      <point x="43" y="229" type="curve"/>
      <point x="43" y="138"/>
      <point x="43" y="74"/>
      <point x="43" y="0" type="curve"/>
      <point x="288" y="0" type="line"/>
      <point x="288" y="74"/>
      <point x="288" y="138"/>
      <point x="288" y="229" type="curve"/>
      <point x="288" y="427" type="line" smooth="yes"/>
      <point x="288" y="500"/>
      <point x="317" y="531"/>
      <point x="377" y="531" type="curve"/>
      <point x="433" y="531"/>
      <point x="487" y="506"/>
      <point x="512" y="468" type="curve"/>
      <point x="512" y="550" type="line"/>
      <point x="437" y="488" type="line"/>
      <point x="411" y="467"/>
      <point x="386" y="445"/>
      <point x="360" y="424" type="curve"/>
      <point x="360" y="294" type="line"/>
      <point x="425" y="284"/>
      <point x="461" y="262"/>
      <point x="461" y="230" type="curve" smooth="yes"/>
      <point x="461" y="199"/>
      <point x="442" y="179"/>
      <point x="380" y="179" type="curve"/>
      <point x="366" y="179"/>
      <point x="347" y="181"/>
      <point x="339" y="182" type="curve"/>
      <point x="339" y="0" type="line"/>
      <point x="356" y="-3"/>
      <point x="410" y="-6"/>
    </contour>
  </outline>
</glyph>
<glyph name="emdash" format="2">
  <advance width="810"/>
  <unicode hex="2014"/>
  <outline>
    <contour>
      <point x="40" y="209" type="line"/>
      <point x="138" y="209"/>
      <point x="230" y="209"/>
      <point x="311" y="209" type="curve"/>
      <point x="499" y="209" type="line"/>
      <point x="580" y="209"/>
      <point x="672" y="209"/>
      <point x="770" y="209" type="curve"/>
      <point x="770" y="399" type="line"/>
      <point x="672" y="399"/>
      <point x="580" y="399"/>
      <point x="499" y="399" type="curve"/>
      <point x="311" y="399" type="line"/>
      <point x="230" y="399"/>
      <point x="138" y="399"/>
      <point x="40" y="399" type="curve"/>
    </contour>
  </outline>
</glyph>
<glyph name="dagger" format="2">
  <advance width="610"/>
  <unicode hex="2020"/>
  <outline>
    <contour>
      <point x="200" y="0" type="curve"/>
      <point x="410" y="0" type="line"/>
      <point x="410" y="108"/>
      <point x="410" y="202"/>
      <point x="410" y="333" type="curve"/>
      <point x="410" y="449" type="line"/>
      <point x="410" y="528"/>
      <point x="410" y="607"/>
      <point x="410" y="690" type="curve"/>
      <point x="200" y="690" type="line"/>
      <point x="200" y="607"/>
      <point x="200" y="528"/>
      <point x="200" y="449" type="curve"/>
      <point x="200" y="333" type="line"/>
      <point x="200" y="202"/>
      <point x="200" y="108"/>
    </contour>
    <contour>
      <point x="40" y="324" type="line"/>
      <point x="115" y="324"/>
      <point x="186" y="324"/>
      <point x="248" y="324" type="curve"/>
      <point x="362" y="324" type="line"/>
      <point x="424" y="324"/>
      <point x="495" y="324"/>
      <point x="570" y="324" type="curve"/>
      <point x="570" y="504" type="line"/>
      <point x="495" y="504"/>
      <point x="424" y="504"/>
      <point x="362" y="504" type="curve"/>
      <point x="248" y="504" type="line"/>
      <point x="186" y="504"/>
      <point x="115" y="504"/>
      <point x="40" y="504" type="curve"/>
    </contour>
  </outline>
</glyph>
<glyph name="daggerdbl" format="2">
  <advance width="610"/>
  <unicode hex="2021"/>
  <outline>
    <contour>
      <point x="200" y="0" type="curve"/>
      <point x="410" y="0" type="line"/>
      <point x="410" y="76"/>
      <point x="410" y="141"/>
      <point x="410" y="233" type="curve"/>
      <point x="410" y="449" type="line"/>
      <point x="410" y="528"/>
      <point x="410" y="607"/>
      <point x="410" y="690" type="curve"/>
      <point x="200" y="690" type="line"/>
      <point x="200" y="607"/>
      <point x="200" y="528"/>
      <point x="200" y="449" type="curve"/>
      <point x="200" y="233" type="line"/>
      <point x="200" y="141"/>
      <point x="200" y="76"/>
    </contour>
    <contour>
      <point x="40" y="394" type="line"/>
      <point x="115" y="394"/>
      <point x="186" y="394"/>
      <point x="248" y="394" type="curve"/>
      <point x="362" y="394" type="line"/>
      <point x="424" y="394"/>
      <point x="495" y="394"/>
      <point x="570" y="394" type="curve"/>
      <point x="570" y="564" type="line"/>
      <point x="495" y="564"/>
      <point x="424" y="564"/>
      <point x="362" y="564" type="curve"/>
      <point x="248" y="564" type="line"/>
      <point x="186" y="564"/>
      <point x="115" y="564"/>
      <point x="40" y="564" type="curve"/>
    </contour>
    <contour>
      <point x="40" y="144" type="line"/>
      <point x="115" y="144"/>
      <point x="186" y="144"/>
      <point x="248" y="144" type="curve"/>
      <point x="362" y="144" type="line"/>
      <point x="424" y="144"/>
      <point x="495" y="144"/>
      <point x="570" y="144" type="curve"/>
      <point x="570" y="314" type="line"/>
      <point x="495" y="314"/>
      <point x="424" y="314"/>
      <point x="362" y="314" type="curve"/>
      <point x="248" y="314" type="line"/>
      <point x="186" y="314"/>
      <point x="115" y="314"/>
      <point x="40" y="314" type="curve"/>
    </contour>
  </outline>
</glyph>
<glyph name="bullet" format="2">
  <advance width="450"/>
  <unicode hex="2022"/>
  <outline>
    <contour>
      <point x="225" y="119" type="curve" smooth="yes"/>
      <point x="341" y="119"/>
      <point x="410" y="201"/>
      <point x="410" y="306" type="curve" smooth="yes"/>
      <point x="410" y="410"/>
      <point x="341" y="489"/>
      <point x="225" y="489" type="curve" smooth="yes"/>
      <point x="109" y="489"/>
      <point x="40" y="410"/>
      <point x="40" y="306" type="curve" smooth="yes"/>
      <point x="40" y="201"/>
      <point x="109" y="119"/>
    </contour>
  </outline>
</glyph>
<glyph name="perthousand" format="2">
  <advance width="1460"/>
  <unicode hex="2030"/>
  <outline>
    <contour>
      <point x="184" y="0" type="curve"/>
      <point x="376" y="0" type="line"/>
      <point x="420" y="73"/>
      <point x="460" y="139"/>
      <point x="516" y="230" type="curve"/>
      <point x="667" y="477" type="line"/>
      <point x="723" y="570"/>
      <point x="765" y="638"/>
      <point x="810" y="713" type="curve"/>
      <point x="618" y="713" type="line"/>
      <point x="573" y="638"/>
      <point x="531" y="570"/>
      <point x="475" y="477" type="curve"/>
      <point x="324" y="230" type="line"/>
      <point x="268" y="139"/>
      <point x="228" y="73"/>
    </contour>
    <contour>
      <point x="233" y="354" type="curve" smooth="yes"/>
      <point x="362" y="354"/>
      <point x="446" y="423"/>
      <point x="446" y="543" type="curve" smooth="yes"/>
      <point x="446" y="649"/>
      <point x="362" y="729"/>
      <point x="233" y="729" type="curve" smooth="yes"/>
      <point x="104" y="729"/>
      <point x="20" y="649"/>
      <point x="20" y="543" type="curve" smooth="yes"/>
      <point x="20" y="423"/>
      <point x="104" y="354"/>
    </contour>
    <contour>
      <point x="233" y="485" type="curve"/>
      <point x="199" y="485"/>
      <point x="179" y="507"/>
      <point x="179" y="541" type="curve" smooth="yes"/>
      <point x="179" y="572"/>
      <point x="199" y="597"/>
      <point x="233" y="597" type="curve"/>
      <point x="267" y="597"/>
      <point x="287" y="570"/>
      <point x="287" y="541" type="curve" smooth="yes"/>
      <point x="287" y="507"/>
      <point x="267" y="485"/>
    </contour>
    <contour>
      <point x="761" y="-16" type="curve" smooth="yes"/>
      <point x="890" y="-16"/>
      <point x="974" y="53"/>
      <point x="974" y="173" type="curve" smooth="yes"/>
      <point x="974" y="279"/>
      <point x="890" y="359"/>
      <point x="761" y="359" type="curve" smooth="yes"/>
      <point x="632" y="359"/>
      <point x="548" y="279"/>
      <point x="548" y="173" type="curve" smooth="yes"/>
      <point x="548" y="53"/>
      <point x="632" y="-16"/>
    </contour>
    <contour>
      <point x="761" y="115" type="curve"/>
      <point x="727" y="115"/>
      <point x="707" y="137"/>
      <point x="707" y="171" type="curve" smooth="yes"/>
      <point x="707" y="202"/>
      <point x="727" y="227"/>
      <point x="761" y="227" type="curve"/>
      <point x="795" y="227"/>
      <point x="815" y="200"/>
      <point x="815" y="171" type="curve" smooth="yes"/>
      <point x="815" y="137"/>
      <point x="795" y="115"/>
    </contour>
    <contour>
      <point x="1217" y="-16" type="curve" smooth="yes"/>
      <point x="1346" y="-16"/>
      <point x="1430" y="53"/>
      <point x="1430" y="173" type="curve" smooth="yes"/>
      <point x="1430" y="279"/>
      <point x="1346" y="359"/>
      <point x="1217" y="359" type="curve" smooth="yes"/>
      <point x="1088" y="359"/>
      <point x="1004" y="279"/>
      <point x="1004" y="173" type="curve" smooth="yes"/>
      <point x="1004" y="53"/>
      <point x="1088" y="-16"/>
    </contour>
    <contour>
      <point x="1217" y="115" type="curve"/>
      <point x="1183" y="115"/>
      <point x="1163" y="137"/>
      <point x="1163" y="171" type="curve" smooth="yes"/>
      <point x="1163" y="202"/>
      <point x="1183" y="227"/>
      <point x="1217" y="227" type="curve"/>
      <point x="1251" y="227"/>
      <point x="1271" y="200"/>
      <point x="1271" y="171" type="curve" smooth="yes"/>
      <point x="1271" y="137"/>
      <point x="1251" y="115"/>
    </contour>
  </outline>
</glyph>
<glyph name="minute" format="2">
  <advance width="290"/>
  <unicode hex="2032"/>
  <outline>
    <contour>
      <point x="40" y="309" type="curve"/>
      <point x="199" y="310" type="line"/>
      <point x="221" y="440"/>
      <point x="243" y="568"/>
      <point x="265" y="695" type="curve"/>
      <point x="55" y="690" type="line"/>
      <point x="51" y="564"/>
      <point x="45" y="437"/>
    </contour>
  </outline>
</glyph>
<glyph name="fraction" format="2">
  <advance width="332"/>
  <unicode hex="2044"/>
  <outline>
    <contour>
      <point x="-120" y="0" type="curve"/>
      <point x="92" y="0" type="line"/>
      <point x="129" y="73"/>
      <point x="162" y="139"/>
      <point x="208" y="230" type="curve"/>
      <point x="333" y="477" type="line"/>
      <point x="380" y="570"/>
      <point x="414" y="638"/>
      <point x="452" y="713" type="curve"/>
      <point x="240" y="713" type="line"/>
      <point x="202" y="638"/>
      <point x="168" y="570"/>
      <point x="121" y="477" type="curve"/>
      <point x="-4" y="230" type="line"/>
      <point x="-50" y="139"/>
      <point x="-83" y="73"/>
    </contour>
  </outline>
</glyph>
<glyph name="colonsign" format="2">
  <advance width="651"/>
  <unicode hex="20A1"/>
  <outline>
    <contour>
      <point x="393" y="-15" type="curve" smooth="yes"/>
      <point x="471" y="-15"/>
      <point x="556" y="-3"/>
      <point x="611" y="24" type="curve"/>
      <point x="601" y="237" type="line"/>
      <point x="539" y="188"/>
      <point x="479" y="174"/>
      <point x="427" y="174" type="curve"/>
      <point x="318" y="174"/>
      <point x="268" y="253"/>
      <point x="268" y="344" type="curve" smooth="yes"/>
      <point x="268" y="457"/>
      <point x="330" y="509"/>
      <point x="410" y="509" type="curve"/>
      <point x="459" y="509"/>
      <point x="524" y="490"/>
      <point x="598" y="440" type="curve"/>
      <point x="614" y="656" type="line"/>
      <point x="555" y="685"/>
      <point x="465" y="705"/>
      <point x="381" y="705" type="curve" smooth="yes"/>
      <point x="147" y="705"/>
      <point x="24" y="549"/>
      <point x="24" y="343" type="curve" smooth="yes"/>
      <point x="24" y="120"/>
      <point x="167" y="-15"/>
    </contour>
    <contour>
      <point x="120" y="-137" type="curve"/>
      <point x="262" y="-137" type="line"/>
      <point x="287" y="-19"/>
      <point x="308" y="81"/>
      <point x="331" y="190" type="curve"/>
      <point x="391" y="474" type="line"/>
      <point x="414" y="581"/>
      <point x="436" y="686"/>
      <point x="461" y="803" type="curve"/>
      <point x="319" y="803" type="line"/>
      <point x="294" y="686"/>
      <point x="272" y="581"/>
      <point x="249" y="474" type="curve"/>
      <point x="189" y="190" type="line"/>
      <point x="166" y="81"/>
      <point x="145" y="-19"/>
    </contour>
    <contour>
      <point x="303" y="-137" type="curve"/>
      <point x="445" y="-137" type="line"/>
      <point x="470" y="-19"/>
      <point x="491" y="81"/>
      <point x="514" y="190" type="curve"/>
      <point x="574" y="474" type="line"/>
      <point x="597" y="581"/>
      <point x="619" y="686"/>
      <point x="644" y="803" type="curve"/>
      <point x="502" y="803" type="line"/>
      <point x="477" y="686"/>
      <point x="455" y="581"/>
      <point x="432" y="474" type="curve"/>
      <point x="372" y="190" type="line"/>
      <point x="349" y="81"/>
      <point x="328" y="-19"/>
    </contour>
  </outline>
</glyph>
<glyph name="naira" format="2">
  <advance width="854"/>
  <unicode hex="20A6"/>
  <outline>
    <contour>
      <point x="116" y="0" type="curve"/>
      <point x="335" y="0" type="line"/>
      <point x="335" y="71"/>
      <point x="335" y="133"/>
      <point x="335" y="220" type="curve"/>
      <point x="335" y="300" type="line"/>
      <point x="350" y="300" type="line"/>
      <point x="424" y="182" type="line"/>
      <point x="468" y="112"/>
      <point x="505" y="53"/>
      <point x="538" y="0" type="curve"/>
      <point x="738" y="0" type="line"/>
      <point x="738" y="71"/>
      <point x="738" y="133"/>
      <point x="738" y="220" type="curve"/>
      <point x="738" y="461" type="line"/>
      <point x="738" y="552"/>
      <point x="738" y="617"/>
      <point x="738" y="690" type="curve"/>
      <point x="519" y="690" type="line"/>
      <point x="519" y="617"/>
      <point x="519" y="552"/>
      <point x="519" y="461" type="curve"/>
      <point x="519" y="396" type="line"/>
      <point x="503" y="396" type="line"/>
      <point x="429" y="513" type="line"/>
      <point x="393" y="570"/>
      <point x="356" y="628"/>
      <point x="317" y="690" type="curve"/>
      <point x="116" y="690" type="line"/>
      <point x="116" y="617"/>
      <point x="116" y="552"/>
      <point x="116" y="461" type="curve"/>
      <point x="116" y="220" type="line"/>
      <point x="116" y="133"/>
      <point x="116" y="71"/>
    </contour>
    <contour>
      <point x="25" y="283" type="line"/>
      <point x="100" y="283"/>
      <point x="171" y="283"/>
      <point x="233" y="283" type="curve"/>
      <point x="621" y="283" type="line"/>
      <point x="683" y="283"/>
      <point x="754" y="283"/>
      <point x="829" y="283" type="curve"/>
      <point x="829" y="433" type="line"/>
      <point x="754" y="433"/>
      <point x="683" y="433"/>
      <point x="621" y="433" type="curve"/>
      <point x="233" y="433" type="line"/>
      <point x="171" y="433"/>
      <point x="100" y="433"/>
      <point x="25" y="433" type="curve"/>
    </contour>
  </outline>
</glyph>
<glyph name="dong" format="2">
  <advance width="578"/>
  <unicode hex="20AB"/>
  <outline>
    <contour>
      <point x="194" y="133" type="curve" smooth="yes"/>
      <point x="245" y="133"/>
      <point x="281" y="155"/>
      <point x="309" y="196" type="curve"/>
      <point x="320" y="196" type="line"/>
      <point x="332" y="146" type="line"/>
      <point x="484" y="146" type="line"/>
      <point x="484" y="201"/>
      <point x="484" y="249"/>
      <point x="484" y="316" type="curve"/>
      <point x="484" y="540" type="line"/>
      <point x="484" y="617"/>
      <point x="484" y="685"/>
      <point x="484" y="746" type="curve"/>
      <point x="302" y="733" type="line"/>
      <point x="302" y="665"/>
      <point x="302" y="603"/>
      <point x="302" y="540" type="curve"/>
      <point x="302" y="511" type="line"/>
      <point x="289" y="511" type="line"/>
      <point x="268" y="547"/>
      <point x="236" y="561"/>
      <point x="195" y="561" type="curve" smooth="yes"/>
      <point x="87" y="561"/>
      <point x="35" y="466"/>
      <point x="35" y="347" type="curve" smooth="yes"/>
      <point x="35" y="237"/>
      <point x="83" y="133"/>
    </contour>
    <contour>
      <point x="41" y="0" type="line"/>
      <point x="116" y="0"/>
      <point x="187" y="0"/>
      <point x="249" y="0" type="curve"/>
      <point x="293" y="0" type="line"/>
      <point x="355" y="0"/>
      <point x="426" y="0"/>
      <point x="501" y="0" type="curve"/>
      <point x="501" y="100" type="line"/>
      <point x="426" y="100"/>
      <point x="355" y="100"/>
      <point x="293" y="100" type="curve"/>
      <point x="249" y="100" type="line"/>
      <point x="187" y="100"/>
      <point x="116" y="100"/>
      <point x="41" y="100" type="curve"/>
    </contour>
    <contour>
      <point x="268" y="284" type="curve"/>
      <point x="238" y="284"/>
      <point x="221" y="315"/>
      <point x="221" y="345" type="curve" smooth="yes"/>
      <point x="221" y="378"/>
      <point x="237" y="407"/>
      <point x="268" y="407" type="curve"/>
      <point x="282" y="407"/>
      <point x="295" y="401"/>
      <point x="302" y="394" type="curve"/>
      <point x="302" y="305" type="line"/>
      <point x="297" y="294"/>
      <point x="285" y="284"/>
    </contour>
    <contour>
      <point x="170" y="596" type="line"/>
      <point x="238" y="596"/>
      <point x="303" y="596"/>
      <point x="359" y="596" type="curve"/>
      <point x="374" y="596" type="line"/>
      <point x="430" y="596"/>
      <point x="495" y="596"/>
      <point x="563" y="596" type="curve"/>
      <point x="563" y="686" type="line"/>
      <point x="495" y="686"/>
      <point x="430" y="686"/>
      <point x="374" y="686" type="curve"/>
      <point x="359" y="686" type="line"/>
      <point x="303" y="686"/>
      <point x="238" y="686"/>
      <point x="170" y="686" type="curve"/>
    </contour>
  </outline>
</glyph>
<glyph name="manat" format="2">
  <advance width="786"/>
  <unicode hex="20BC"/>
  <outline>
    <contour>
      <point x="40" y="0" type="curve"/>
      <point x="264" y="0" type="line"/>
      <point x="264" y="71"/>
      <point x="264" y="133"/>
      <point x="264" y="220" type="curve"/>
      <point x="264" y="369"/>
      <point x="297" y="438"/>
      <point x="400" y="438" type="curve"/>
      <point x="499" y="438"/>
      <point x="522" y="368"/>
      <point x="522" y="220" type="curve"/>
      <point x="522" y="133"/>
      <point x="522" y="71"/>
      <point x="522" y="0" type="curve"/>
      <point x="746" y="0" type="line"/>
      <point x="746" y="71"/>
      <point x="746" y="133"/>
      <point x="746" y="220" type="curve"/>
      <point x="746" y="471"/>
      <point x="658" y="626"/>
      <point x="397" y="626" type="curve" smooth="yes"/>
      <point x="136" y="626"/>
      <point x="40" y="471"/>
      <point x="40" y="220" type="curve"/>
      <point x="40" y="133"/>
      <point x="40" y="71"/>
    </contour>
    <contour>
      <point x="329" y="0" type="curve"/>
      <point x="459" y="0" type="line"/>
      <point x="459" y="117"/>
      <point x="459" y="219"/>
      <point x="459" y="329" type="curve"/>
      <point x="459" y="400" type="line"/>
      <point x="459" y="508"/>
      <point x="459" y="611"/>
      <point x="459" y="729" type="curve"/>
      <point x="329" y="729" type="line"/>
      <point x="329" y="611"/>
      <point x="329" y="508"/>
      <point x="329" y="400" type="curve"/>
      <point x="329" y="329" type="line"/>
      <point x="329" y="221"/>
      <point x="329" y="118"/>
    </contour>
  </outline>
</glyph>
<glyph name="literSign" format="2">
  <advance width="583"/>
  <unicode hex="2113"/>
  <outline>
    <contour>
      <point x="408" y="-16" type="curve" smooth="yes"/>
      <point x="459" y="-16"/>
      <point x="504" y="-8"/>
      <point x="542" y="8" type="curve"/>
      <point x="534" y="194" type="line"/>
      <point x="505" y="174"/>
      <point x="464" y="162"/>
      <point x="429" y="162" type="curve"/>
      <point x="355" y="162"/>
      <point x="305" y="184"/>
      <point x="305" y="296" type="curve" smooth="yes"/>
      <point x="305" y="455" type="line" smooth="yes"/>
      <point x="305" y="546"/>
      <point x="328" y="565"/>
      <point x="352" y="565" type="curve"/>
      <point x="376" y="565"/>
      <point x="405" y="544"/>
      <point x="405" y="487" type="curve" smooth="yes"/>
      <point x="405" y="411"/>
      <point x="359" y="322"/>
      <point x="233" y="322" type="curve" smooth="yes"/>
      <point x="189" y="322"/>
      <point x="91" y="333"/>
      <point x="24" y="355" type="curve"/>
      <point x="17" y="243" type="line"/>
      <point x="64" y="228"/>
      <point x="136" y="213"/>
      <point x="237" y="213" type="curve" smooth="yes"/>
      <point x="485" y="213"/>
      <point x="555" y="359"/>
      <point x="555" y="483" type="curve" smooth="yes"/>
      <point x="555" y="635"/>
      <point x="463" y="706"/>
      <point x="342" y="706" type="curve" smooth="yes"/>
      <point x="165" y="706"/>
      <point x="97" y="596"/>
      <point x="97" y="419" type="curve" smooth="yes"/>
      <point x="97" y="289" type="line" smooth="yes"/>
      <point x="97" y="81"/>
      <point x="213" y="-16"/>
    </contour>
  </outline>
</glyph>
<glyph name="product" format="2">
  <advance width="841"/>
  <unicode hex="220F"/>
  <outline>
    <contour>
      <point x="483" y="-192" type="curve"/>
      <point x="728" y="-192" type="line"/>
      <point x="728" y="-99"/>
      <point x="728" y="-18"/>
      <point x="728" y="97" type="curve"/>
      <point x="728" y="374" type="line"/>
      <point x="728" y="489"/>
      <point x="728" y="571"/>
      <point x="728" y="664" type="curve"/>
      <point x="728" y="713" type="line"/>
      <point x="483" y="713" type="line"/>
      <point x="483" y="664" type="line"/>
      <point x="483" y="571"/>
      <point x="483" y="489"/>
      <point x="483" y="374" type="curve"/>
      <point x="483" y="97" type="line"/>
      <point x="483" y="-18"/>
      <point x="483" y="-99"/>
    </contour>
    <contour>
      <point x="113" y="-192" type="curve"/>
      <point x="358" y="-192" type="line"/>
      <point x="358" y="-99"/>
      <point x="358" y="-18"/>
      <point x="358" y="97" type="curve"/>
      <point x="358" y="374" type="line"/>
      <point x="358" y="489"/>
      <point x="358" y="571"/>
      <point x="358" y="664" type="curve"/>
      <point x="358" y="713" type="line"/>
      <point x="113" y="713" type="line"/>
      <point x="113" y="664" type="line"/>
      <point x="113" y="571"/>
      <point x="113" y="489"/>
      <point x="113" y="374" type="curve"/>
      <point x="113" y="97" type="line"/>
      <point x="113" y="-18"/>
      <point x="113" y="-99"/>
    </contour>
    <contour>
      <point x="30" y="511" type="line"/>
      <point x="78" y="511"/>
      <point x="129" y="511"/>
      <point x="199" y="511" type="curve"/>
      <point x="642" y="511" type="line"/>
      <point x="712" y="511"/>
      <point x="763" y="511"/>
      <point x="811" y="511" type="curve"/>
      <point x="811" y="713" type="line"/>
      <point x="30" y="713" type="line"/>
    </contour>
  </outline>
</glyph>
<glyph name="radical" format="2">
  <advance width="659"/>
  <unicode hex="221A"/>
  <outline>
    <contour>
      <point x="245" y="0" type="curve"/>
      <point x="521" y="0" type="line"/>
      <point x="535" y="72"/>
      <point x="547" y="135"/>
      <point x="565" y="228" type="curve"/>
      <point x="632" y="581" type="line"/>
      <point x="651" y="678"/>
      <point x="663" y="741"/>
      <point x="678" y="818" type="curve"/>
      <point x="477" y="818" type="line"/>
      <point x="467" y="762"/>
      <point x="459" y="718"/>
      <point x="447" y="651" type="curve"/>
      <point x="375" y="251" type="line"/>
      <point x="359" y="251" type="line"/>
      <point x="330" y="368" type="line"/>
      <point x="320" y="409"/>
      <point x="308" y="457"/>
      <point x="297" y="502" type="curve"/>
      <point x="80" y="502" type="line"/>
      <point x="146" y="301" type="line"/>
      <point x="186" y="180"/>
      <point x="214" y="94"/>
    </contour>
    <contour>
      <point x="20" y="312" type="line"/>
      <point x="95" y="312"/>
      <point x="166" y="312"/>
      <point x="228" y="312" type="curve"/>
      <point x="228" y="502" type="line"/>
      <point x="166" y="502"/>
      <point x="95" y="502"/>
      <point x="20" y="502" type="curve"/>
    </contour>
  </outline>
</glyph>
<glyph name="infinity" format="2">
  <advance width="922"/>
  <unicode hex="221E"/>
  <outline>
    <contour>
      <point x="660" y="50" type="curve" smooth="yes"/>
      <point x="825" y="50"/>
      <point x="900" y="174"/>
      <point x="900" y="310" type="curve" smooth="yes"/>
      <point x="900" y="456"/>
      <point x="825" y="570"/>
      <point x="660" y="570" type="curve" smooth="yes"/>
      <point x="520" y="570"/>
      <point x="435" y="461"/>
      <point x="390" y="347" type="curve"/>
      <point x="390" y="272" type="line"/>
      <point x="436" y="156"/>
      <point x="527" y="50"/>
    </contour>
    <contour>
      <point x="262" y="50" type="curve" smooth="yes"/>
      <point x="395" y="50"/>
      <point x="486" y="156"/>
      <point x="532" y="272" type="curve"/>
      <point x="532" y="347" type="line"/>
      <point x="487" y="461"/>
      <point x="402" y="570"/>
      <point x="262" y="570" type="curve" smooth="yes"/>
      <point x="97" y="570"/>
      <point x="22" y="456"/>
      <point x="22" y="310" type="curve" smooth="yes"/>
      <point x="22" y="174"/>
      <point x="97" y="50"/>
    </contour>
    <contour>
      <point x="278" y="222" type="curve"/>
      <point x="243" y="222"/>
      <point x="222" y="263"/>
      <point x="222" y="310" type="curve" smooth="yes"/>
      <point x="222" y="361"/>
      <point x="242" y="398"/>
      <point x="277" y="398" type="curve"/>
      <point x="306" y="398"/>
      <point x="330" y="369"/>
      <point x="354" y="310" type="curve"/>
      <point x="330" y="253"/>
      <point x="306" y="222"/>
    </contour>
    <contour>
      <point x="644" y="222" type="curve"/>
      <point x="616" y="222"/>
      <point x="592" y="253"/>
      <point x="568" y="310" type="curve"/>
      <point x="592" y="369"/>
      <point x="616" y="398"/>
      <point x="645" y="398" type="curve"/>
      <point x="680" y="398"/>
      <point x="700" y="361"/>
      <point x="700" y="310" type="curve" smooth="yes"/>
      <point x="700" y="263"/>
      <point x="679" y="222"/>
    </contour>
  </outline>
</glyph>
<glyph name="integral" format="2">
  <advance width="436"/>
  <unicode hex="222B"/>
  <outline>
    <contour>
      <point x="127" y="-207" type="curve" smooth="yes"/>
      <point x="230" y="-207"/>
      <point x="329" y="-168"/>
      <point x="329" y="28" type="curve" smooth="yes"/>
      <point x="329" y="112"/>
      <point x="329" y="356"/>
      <point x="329" y="520" type="curve" smooth="yes"/>
      <point x="329" y="559"/>
      <point x="344" y="570"/>
      <point x="366" y="570" type="curve" smooth="yes"/>
      <point x="382" y="570"/>
      <point x="402" y="565"/>
      <point x="422" y="555" type="curve"/>
      <point x="436" y="730" type="line"/>
      <point x="415" y="738"/>
      <point x="356" y="749"/>
      <point x="309" y="749" type="curve" smooth="yes"/>
      <point x="206" y="749"/>
      <point x="107" y="710"/>
      <point x="107" y="514" type="curve" smooth="yes"/>
      <point x="107" y="430"/>
      <point x="107" y="186"/>
      <point x="107" y="22" type="curve" smooth="yes"/>
      <point x="107" y="-17"/>
      <point x="92" y="-28"/>
      <point x="70" y="-28" type="curve" smooth="yes"/>
      <point x="54" y="-28"/>
      <point x="34" y="-23"/>
      <point x="14" y="-13" type="curve"/>
      <point x="0" y="-188" type="line"/>
      <point x="20" y="-196"/>
      <point x="79" y="-207"/>
    </contour>
  </outline>
</glyph>
<glyph name="_Q_tail" format="2">
  <advance width="783"/>
  <anchor x="392" y="0" name="_bottom"/>
  <outline>
    <contour>
      <point x="548" y="-180" type="curve"/>
      <point x="761" y="-88" type="line"/>
      <point x="709" y="-45"/>
      <point x="662" y="-7"/>
      <point x="612" y="34" type="curve"/>
      <point x="497" y="128" type="line"/>
      <point x="365" y="-2" type="line"/>
      <point x="435" y="-70" type="line"/>
      <point x="470" y="-104"/>
      <point x="508" y="-141"/>
    </contour>
  </outline>
</glyph>
<glyph name=".notdef" format="2">
  <advance width="605"/>
  <outline>
    <contour>
      <point x="20" y="-192" type="line"/>
      <point x="585" y="-192" type="line"/>
      <point x="585" y="818" type="line"/>
      <point x="20" y="818" type="line"/>
    </contour>
    <contour>
      <point x="293" y="11" type="curve" smooth="yes"/>
      <point x="354" y="11"/>
      <point x="391" y="54"/>
      <point x="391" y="106" type="curve" smooth="yes"/>
      <point x="391" y="159"/>
      <point x="354" y="199"/>
      <point x="293" y="199" type="curve" smooth="yes"/>
      <point x="232" y="199"/>
      <point x="195" y="159"/>
      <point x="195" y="106" type="curve" smooth="yes"/>
      <point x="195" y="54"/>
      <point x="232" y="11"/>
    </contour>
    <contour>
      <point x="100" y="-112" type="line"/>
      <point x="100" y="738" type="line"/>
      <point x="505" y="738" type="line"/>
      <point x="505" y="-112" type="line"/>
    </contour>
    <contour>
      <point x="300" y="230" type="curve" smooth="yes"/>
      <point x="340" y="230"/>
      <point x="376" y="239"/>
      <point x="397" y="247" type="curve"/>
      <point x="393" y="318" type="line"/>
      <point x="381" y="312"/>
      <point x="368" y="308"/>
      <point x="358" y="308" type="curve"/>
      <point x="351" y="308"/>
      <point x="342" y="310"/>
      <point x="342" y="320" type="curve"/>
      <point x="342" y="331"/>
      <point x="358" y="342"/>
      <point x="379" y="357" type="curve" smooth="yes"/>
      <point x="418" y="385"/>
      <point x="475" y="424"/>
      <point x="475" y="507" type="curve" smooth="yes"/>
      <point x="475" y="595"/>
      <point x="418" y="631"/>
      <point x="305" y="631" type="curve" smooth="yes"/>
      <point x="233" y="631"/>
      <point x="173" y="614"/>
      <point x="136" y="600" type="curve"/>
      <point x="143" y="454" type="line"/>
      <point x="182" y="477"/>
      <point x="226" y="488"/>
      <point x="260" y="488" type="curve"/>
      <point x="290" y="488"/>
      <point x="305" y="478"/>
      <point x="305" y="464" type="curve"/>
      <point x="305" y="447"/>
      <point x="285" y="434"/>
      <point x="262" y="418" type="curve" smooth="yes"/>
      <point x="224" y="391"/>
      <point x="187" y="364"/>
      <point x="187" y="309" type="curve" smooth="yes"/>
      <point x="187" y="262"/>
      <point x="216" y="230"/>
    </contour>
  </outline>
</glyph>
<glyph name="_question" format="2">
  <advance width="465"/>
  <outline>
    <contour>
      <point x="226" y="248" type="curve" smooth="yes"/>
      <point x="276" y="248"/>
      <point x="321" y="259"/>
      <point x="347" y="269" type="curve"/>
      <point x="342" y="358" type="line"/>
      <point x="327" y="350"/>
      <point x="311" y="345"/>
      <point x="299" y="345" type="curve"/>
      <point x="290" y="345"/>
      <point x="279" y="348"/>
      <point x="279" y="360" type="curve"/>
      <point x="279" y="374"/>
      <point x="299" y="388"/>
      <point x="325" y="406" type="curve" smooth="yes"/>
      <point x="374" y="440"/>
      <point x="445" y="490"/>
      <point x="445" y="594" type="curve" smooth="yes"/>
      <point x="445" y="704"/>
      <point x="374" y="749"/>
      <point x="232" y="749" type="curve" smooth="yes"/>
      <point x="143" y="749"/>
      <point x="68" y="727"/>
      <point x="21" y="710" type="curve"/>
      <point x="30" y="528" type="line"/>
      <point x="79" y="556"/>
      <point x="134" y="570"/>
      <point x="176" y="570" type="curve"/>
      <point x="214" y="570"/>
      <point x="232" y="558"/>
      <point x="232" y="540" type="curve"/>
      <point x="232" y="519"/>
      <point x="208" y="502"/>
      <point x="179" y="482" type="curve" smooth="yes"/>
      <point x="131" y="449"/>
      <point x="85" y="415"/>
      <point x="85" y="346" type="curve" smooth="yes"/>
      <point x="85" y="288"/>
      <point x="121" y="248"/>
    </contour>
  </outline>
</glyph>
<glyph name="_strokeshortcomb.Eth" format="2">
  <advance width="730"/>
  <anchor x="365" y="357" name="_center"/>
  <outline>
    <contour>
      <point x="-16" y="276" type="line"/>
      <point x="47" y="276"/>
      <point x="107" y="276"/>
      <point x="160" y="276" type="curve"/>
      <point x="208" y="276" type="line"/>
      <point x="261" y="276"/>
      <point x="321" y="276"/>
      <point x="384" y="276" type="curve"/>
      <point x="384" y="437" type="line"/>
      <point x="321" y="437"/>
      <point x="261" y="437"/>
      <point x="208" y="437" type="curve"/>
      <point x="160" y="437" type="line"/>
      <point x="107" y="437"/>
      <point x="47" y="437"/>
      <point x="-16" y="437" type="curve"/>
    </contour>
  </outline>
</glyph>
<glyph name="brevecomb_acutecomb.case" format="2">
  <anchor x="300" y="502" name="_top"/>
  <outline>
    <contour>
      <point x="299" y="538" type="curve" smooth="yes"/>
      <point x="443" y="538"/>
      <point x="511" y="598"/>
      <point x="511" y="722" type="curve"/>
      <point x="369" y="722" type="line"/>
      <point x="369" y="701"/>
      <point x="351" y="668"/>
      <point x="299" y="668" type="curve"/>
      <point x="248" y="668"/>
      <point x="230" y="701"/>
      <point x="230" y="728" type="curve"/>
      <point x="88" y="722" type="line"/>
      <point x="88" y="598"/>
      <point x="157" y="538"/>
    </contour>
    <contour>
      <point x="220" y="744" type="curve"/>
      <point x="358" y="745" type="line"/>
      <point x="403" y="805"/>
      <point x="451" y="871"/>
      <point x="500" y="937" type="curve"/>
      <point x="309" y="933" type="line"/>
      <point x="280" y="871"/>
      <point x="250" y="807"/>
    </contour>
  </outline>
</glyph>
<glyph name="brevecomb_gravecomb.case" format="2">
  <anchor x="299.5" y="502" name="_top"/>
  <outline>
    <contour>
      <point x="299" y="538" type="curve" smooth="yes"/>
      <point x="443" y="538"/>
      <point x="511" y="598"/>
      <point x="511" y="722" type="curve"/>
      <point x="369" y="722" type="line"/>
      <point x="369" y="701"/>
      <point x="351" y="668"/>
      <point x="299" y="668" type="curve"/>
      <point x="248" y="668"/>
      <point x="230" y="701"/>
      <point x="230" y="728" type="curve"/>
      <point x="88" y="722" type="line"/>
      <point x="88" y="598"/>
      <point x="157" y="538"/>
    </contour>
    <contour>
      <point x="262" y="744" type="curve"/>
      <point x="400" y="745" type="line"/>
      <point x="370" y="810"/>
      <point x="339" y="873"/>
      <point x="310" y="937" type="curve"/>
      <point x="120" y="933" type="line"/>
      <point x="169" y="867"/>
      <point x="218" y="804"/>
    </contour>
  </outline>
</glyph>
<glyph name="brevecomb_hookabovecomb.case" format="2">
  <anchor x="299.5" y="502" name="_top"/>
  <outline>
    <contour>
      <point x="299" y="538" type="curve" smooth="yes"/>
      <point x="443" y="538"/>
      <point x="511" y="598"/>
      <point x="511" y="722" type="curve"/>
      <point x="369" y="722" type="line"/>
      <point x="369" y="701"/>
      <point x="351" y="668"/>
      <point x="299" y="668" type="curve"/>
      <point x="248" y="668"/>
      <point x="230" y="701"/>
      <point x="230" y="728" type="curve"/>
      <point x="88" y="722" type="line"/>
      <point x="88" y="598"/>
      <point x="157" y="538"/>
    </contour>
    <contour>
      <point x="231" y="740" type="line"/>
      <point x="335" y="740" type="line"/>
      <point x="335" y="750" type="line"/>
      <point x="410" y="763"/>
      <point x="456" y="799"/>
      <point x="456" y="860" type="curve" smooth="yes"/>
      <point x="456" y="935"/>
      <point x="384" y="955"/>
      <point x="311" y="955" type="curve" smooth="yes"/>
      <point x="243" y="955"/>
      <point x="192" y="940"/>
      <point x="167" y="931" type="curve"/>
      <point x="175" y="826" type="line"/>
      <point x="209" y="839"/>
      <point x="243" y="851"/>
      <point x="277" y="851" type="curve"/>
      <point x="297" y="851"/>
      <point x="309" y="844"/>
      <point x="309" y="831" type="curve" smooth="yes"/>
      <point x="309" y="810"/>
      <point x="271" y="793"/>
      <point x="231" y="787" type="curve"/>
    </contour>
  </outline>
</glyph>
<glyph name="brevecomb_tildecomb" format="2">
  <anchor x="300" y="502" name="_top"/>
  <outline>
    <contour>
      <point x="299" y="538" type="curve" smooth="yes"/>
      <point x="443" y="538"/>
      <point x="511" y="598"/>
      <point x="511" y="742" type="curve"/>
      <point x="369" y="742" type="line"/>
      <point x="369" y="701"/>
      <point x="351" y="668"/>
      <point x="299" y="668" type="curve"/>
      <point x="248" y="668"/>
      <point x="230" y="701"/>
      <point x="230" y="748" type="curve"/>
      <point x="88" y="742" type="line"/>
      <point x="88" y="598"/>
      <point x="157" y="538"/>
    </contour>
    <contour>
      <point x="385" y="770" type="curve" smooth="yes"/>
      <point x="451" y="770"/>
      <point x="495" y="832"/>
      <point x="495" y="942" type="curve"/>
      <point x="396" y="942" type="line"/>
      <point x="392" y="928"/>
      <point x="383" y="902"/>
      <point x="364" y="902" type="curve"/>
      <point x="336" y="902"/>
      <point x="299" y="961"/>
      <point x="222" y="961" type="curve" smooth="yes"/>
      <point x="151" y="961"/>
      <point x="105" y="899"/>
      <point x="105" y="789" type="curve"/>
      <point x="204" y="789" type="line"/>
      <point x="209" y="803"/>
      <point x="219" y="829"/>
      <point x="240" y="829" type="curve"/>
      <point x="265" y="829"/>
      <point x="305" y="770"/>
    </contour>
  </outline>
</glyph>
<glyph name="cedi.BRACKET.140" format="2">
  <advance width="651"/>
  <outline>
    <contour>
      <point x="393" y="-15" type="curve" smooth="yes"/>
      <point x="471" y="-15"/>
      <point x="556" y="-3"/>
      <point x="611" y="24" type="curve"/>
      <point x="601" y="237" type="line"/>
      <point x="539" y="188"/>
      <point x="479" y="174"/>
      <point x="427" y="174" type="curve"/>
      <point x="318" y="174"/>
      <point x="268" y="253"/>
      <point x="268" y="344" type="curve" smooth="yes"/>
      <point x="268" y="457"/>
      <point x="330" y="509"/>
      <point x="410" y="509" type="curve"/>
      <point x="459" y="509"/>
      <point x="524" y="490"/>
      <point x="598" y="440" type="curve"/>
      <point x="614" y="656" type="line"/>
      <point x="555" y="685"/>
      <point x="465" y="705"/>
      <point x="381" y="705" type="curve" smooth="yes"/>
      <point x="147" y="705"/>
      <point x="24" y="549"/>
      <point x="24" y="343" type="curve" smooth="yes"/>
      <point x="24" y="120"/>
      <point x="167" y="-15"/>
    </contour>
    <contour>
      <point x="306" y="-137" type="curve"/>
      <point x="466" y="-137" type="line"/>
      <point x="466" y="-55"/>
      <point x="466" y="19"/>
      <point x="466" y="93" type="curve"/>
      <point x="306" y="93" type="line"/>
      <point x="306" y="19"/>
      <point x="306" y="-55"/>
    </contour>
    <contour>
      <point x="306" y="604" type="curve"/>
      <point x="466" y="604" type="line"/>
      <point x="466" y="668"/>
      <point x="466" y="733"/>
      <point x="466" y="803" type="curve"/>
      <point x="306" y="803" type="line"/>
      <point x="306" y="733"/>
      <point x="306" y="668"/>
    </contour>
  </outline>
</glyph>
<glyph name="cent.BRACKET.140" format="2">
  <advance width="474"/>
  <anchor x="274" y="0" name="bottom"/>
  <anchor x="274" y="502" name="top"/>
  <outline>
    <contour>
      <point x="206" y="-137" type="curve"/>
      <point x="356" y="-137" type="line"/>
      <point x="356" y="-55"/>
      <point x="356" y="22"/>
      <point x="356" y="99" type="curve"/>
      <point x="206" y="99" type="line"/>
      <point x="206" y="23"/>
      <point x="206" y="-53"/>
    </contour>
    <contour>
      <point x="206" y="413" type="curve"/>
      <point x="356" y="413" type="line"/>
      <point x="356" y="482"/>
      <point x="356" y="552"/>
      <point x="356" y="628" type="curve"/>
      <point x="206" y="628" type="line"/>
      <point x="206" y="552"/>
      <point x="206" y="482"/>
    </contour>
    <contour>
      <point x="297" y="-12" type="curve" smooth="yes"/>
      <point x="368" y="-12"/>
      <point x="414" y="-5"/>
      <point x="451" y="7" type="curve"/>
      <point x="443" y="194" type="line"/>
      <point x="415" y="175"/>
      <point x="384" y="166"/>
      <point x="352" y="166" type="curve"/>
      <point x="285" y="166"/>
      <point x="244" y="200"/>
      <point x="244" y="256" type="curve" smooth="yes"/>
      <point x="244" y="303"/>
      <point x="274" y="333"/>
      <point x="320" y="333" type="curve"/>
      <point x="343" y="333"/>
      <point x="381" y="329"/>
      <point x="439" y="296" type="curve"/>
      <point x="454" y="483" type="line"/>
      <point x="412" y="505"/>
      <point x="348" y="517"/>
      <point x="287" y="517" type="curve" smooth="yes"/>
      <point x="103" y="517"/>
      <point x="18" y="404"/>
      <point x="18" y="249" type="curve" smooth="yes"/>
      <point x="18" y="95"/>
      <point x="118" y="-12"/>
    </contour>
  </outline>
</glyph>
<glyph name="circumflexcomb_acutecomb.case" format="2">
  <anchor x="300" y="502" name="_top"/>
  <outline>
    <contour>
      <point x="441" y="704" type="curve"/>
      <point x="579" y="705" type="line"/>
      <point x="624" y="765"/>
      <point x="672" y="831"/>
      <point x="721" y="897" type="curve"/>
      <point x="530" y="893" type="line"/>
      <point x="501" y="831"/>
      <point x="471" y="767"/>
    </contour>
    <contour>
      <point x="93" y="554" type="curve"/>
      <point x="240" y="554" type="line"/>
      <point x="286" y="615"/>
      <point x="335" y="679"/>
      <point x="386" y="745" type="curve"/>
      <point x="197" y="745" type="line"/>
      <point x="161" y="680"/>
      <point x="128" y="616"/>
    </contour>
    <contour>
      <point x="362" y="552" type="curve"/>
      <point x="507" y="554" type="line"/>
      <point x="474" y="616"/>
      <point x="439" y="680"/>
      <point x="404" y="745" type="curve"/>
      <point x="214" y="745" type="line"/>
      <point x="266" y="679"/>
      <point x="315" y="615"/>
    </contour>
  </outline>
</glyph>
<glyph name="circumflexcomb_gravecomb.case" format="2">
  <anchor x="300" y="502" name="_top"/>
  <outline>
    <contour>
      <point x="471" y="704" type="curve"/>
      <point x="609" y="705" type="line"/>
      <point x="579" y="770"/>
      <point x="548" y="833"/>
      <point x="519" y="897" type="curve"/>
      <point x="329" y="893" type="line"/>
      <point x="378" y="827"/>
      <point x="427" y="764"/>
    </contour>
    <contour>
      <point x="93" y="554" type="curve"/>
      <point x="240" y="554" type="line"/>
      <point x="286" y="615"/>
      <point x="335" y="679"/>
      <point x="386" y="745" type="curve"/>
      <point x="197" y="745" type="line"/>
      <point x="161" y="680"/>
      <point x="128" y="616"/>
    </contour>
    <contour>
      <point x="362" y="552" type="curve"/>
      <point x="507" y="554" type="line"/>
      <point x="474" y="616"/>
      <point x="439" y="680"/>
      <point x="404" y="745" type="curve"/>
      <point x="214" y="745" type="line"/>
      <point x="266" y="679"/>
      <point x="315" y="615"/>
    </contour>
  </outline>
</glyph>
<glyph name="circumflexcomb_tildecomb.case" format="2">
  <anchor x="300" y="502" name="_top"/>
  <outline>
    <contour>
      <point x="93" y="554" type="curve"/>
      <point x="240" y="554" type="line"/>
      <point x="286" y="615"/>
      <point x="335" y="679"/>
      <point x="386" y="745" type="curve"/>
      <point x="197" y="745" type="line"/>
      <point x="161" y="680"/>
      <point x="128" y="616"/>
    </contour>
    <contour>
      <point x="362" y="552" type="curve"/>
      <point x="507" y="554" type="line"/>
      <point x="474" y="616"/>
      <point x="439" y="680"/>
      <point x="404" y="745" type="curve"/>
      <point x="214" y="745" type="line"/>
      <point x="266" y="679"/>
      <point x="315" y="615"/>
    </contour>
    <contour>
      <point x="385" y="760" type="curve" smooth="yes"/>
      <point x="451" y="760"/>
      <point x="495" y="822"/>
      <point x="495" y="932" type="curve"/>
      <point x="396" y="932" type="line"/>
      <point x="392" y="918"/>
      <point x="383" y="892"/>
      <point x="364" y="892" type="curve"/>
      <point x="336" y="892"/>
      <point x="299" y="951"/>
      <point x="222" y="951" type="curve" smooth="yes"/>
      <point x="151" y="951"/>
      <point x="105" y="889"/>
      <point x="105" y="779" type="curve"/>
      <point x="204" y="779" type="line"/>
      <point x="209" y="793"/>
      <point x="219" y="819"/>
      <point x="240" y="819" type="curve"/>
      <point x="265" y="819"/>
      <point x="305" y="760"/>
    </contour>
  </outline>
</glyph>
<glyph name="dblgravecomb.case" format="2">
  <anchor x="300" y="502" name="_top"/>
  <anchor x="300" y="757" name="top"/>
  <outline>
    <contour>
      <point x="133" y="553" type="curve"/>
      <point x="277" y="555" type="line"/>
      <point x="243" y="622"/>
      <point x="209" y="688"/>
      <point x="175" y="756" type="curve"/>
      <point x="-27" y="751" type="line"/>
      <point x="28" y="682"/>
      <point x="83" y="616"/>
    </contour>
    <contour>
      <point x="369" y="553" type="curve"/>
      <point x="509" y="555" type="line"/>
      <point x="484" y="622"/>
      <point x="457" y="688"/>
      <point x="432" y="756" type="curve"/>
      <point x="236" y="751" type="line"/>
      <point x="282" y="682"/>
      <point x="327" y="616"/>
    </contour>
  </outline>
</glyph>
<glyph name="dieresiscomb.narrow" format="2">
  <anchor x="299" y="502" name="_top"/>
  <anchor x="298" y="710" name="top"/>
  <outline>
    <contour>
      <point x="408" y="538" type="curve" smooth="yes"/>
      <point x="471" y="538"/>
      <point x="507" y="572"/>
      <point x="507" y="642" type="curve" smooth="yes"/>
      <point x="507" y="698"/>
      <point x="471" y="743"/>
      <point x="409" y="743" type="curve" smooth="yes"/>
      <point x="346" y="743"/>
      <point x="310" y="701"/>
      <point x="310" y="642" type="curve" smooth="yes"/>
      <point x="310" y="572"/>
      <point x="346" y="538"/>
    </contour>
    <contour>
      <point x="190" y="538" type="curve" smooth="yes"/>
      <point x="253" y="538"/>
      <point x="289" y="572"/>
      <point x="289" y="642" type="curve" smooth="yes"/>
      <point x="289" y="698"/>
      <point x="253" y="743"/>
      <point x="191" y="743" type="curve" smooth="yes"/>
      <point x="128" y="743"/>
      <point x="92" y="701"/>
      <point x="92" y="642" type="curve" smooth="yes"/>
      <point x="92" y="572"/>
      <point x="128" y="538"/>
    </contour>
  </outline>
</glyph>
<glyph name="dollar.BRACKET.140" format="2">
  <advance width="588"/>
  <outline>
    <contour>
      <point x="281" y="-15" type="curve" smooth="yes"/>
      <point x="482" y="-15"/>
      <point x="569" y="65"/>
      <point x="569" y="207" type="curve" smooth="yes"/>
      <point x="569" y="325"/>
      <point x="516" y="376"/>
      <point x="355" y="420" type="curve" smooth="yes"/>
      <point x="297" y="436"/>
      <point x="272" y="447"/>
      <point x="272" y="476" type="curve" smooth="yes"/>
      <point x="272" y="503"/>
      <point x="295" y="515"/>
      <point x="332" y="515" type="curve" smooth="yes"/>
      <point x="382" y="515"/>
      <point x="453" y="496"/>
      <point x="517" y="460" type="curve"/>
      <point x="532" y="655" type="line"/>
      <point x="472" y="679"/>
      <point x="367" y="700"/>
      <point x="282" y="700" type="curve" smooth="yes"/>
      <point x="104" y="700"/>
      <point x="25" y="612"/>
      <point x="25" y="478" type="curve" smooth="yes"/>
      <point x="25" y="352"/>
      <point x="94" y="301"/>
      <point x="212" y="270" type="curve" smooth="yes"/>
      <point x="277" y="253"/>
      <point x="323" y="240"/>
      <point x="323" y="207" type="curve" smooth="yes"/>
      <point x="323" y="180"/>
      <point x="304" y="166"/>
      <point x="261" y="166" type="curve" smooth="yes"/>
      <point x="206" y="166"/>
      <point x="121" y="187"/>
      <point x="53" y="223" type="curve"/>
      <point x="37" y="31" type="line"/>
      <point x="90" y="7"/>
      <point x="195" y="-15"/>
    </contour>
    <contour>
      <point x="222" y="-137" type="curve"/>
      <point x="382" y="-137" type="line"/>
      <point x="382" y="-55"/>
      <point x="382" y="19"/>
      <point x="382" y="93" type="curve"/>
      <point x="222" y="93" type="line"/>
      <point x="222" y="19"/>
      <point x="222" y="-55"/>
    </contour>
    <contour>
      <point x="222" y="604" type="curve"/>
      <point x="382" y="604" type="line"/>
      <point x="382" y="668"/>
      <point x="382" y="733"/>
      <point x="382" y="803" type="curve"/>
      <point x="222" y="803" type="line"/>
      <point x="222" y="733"/>
      <point x="222" y="668"/>
    </contour>
  </outline>
</glyph>
<glyph name="eight.dnom" format="2">
  <advance width="482"/>
  <outline>
    <contour>
      <point x="241" y="-15" type="curve" smooth="yes"/>
      <point x="394" y="-15"/>
      <point x="459" y="44"/>
      <point x="459" y="129" type="curve" smooth="yes"/>
      <point x="459" y="199"/>
      <point x="411" y="233"/>
      <point x="360" y="243" type="curve"/>
      <point x="360" y="255" type="line"/>
      <point x="411" y="264"/>
      <point x="448" y="296"/>
      <point x="448" y="350" type="curve" smooth="yes"/>
      <point x="448" y="426"/>
      <point x="375" y="477"/>
      <point x="241" y="477" type="curve" smooth="yes"/>
      <point x="107" y="477"/>
      <point x="34" y="426"/>
      <point x="34" y="350" type="curve" smooth="yes"/>
      <point x="34" y="296"/>
      <point x="71" y="264"/>
      <point x="122" y="255" type="curve"/>
      <point x="122" y="243" type="line"/>
      <point x="68" y="232"/>
      <point x="23" y="197"/>
      <point x="23" y="129" type="curve" smooth="yes"/>
      <point x="23" y="44"/>
      <point x="88" y="-15"/>
    </contour>
    <contour>
      <point x="241" y="118" type="curve"/>
      <point x="210" y="118"/>
      <point x="194" y="133"/>
      <point x="194" y="153" type="curve" smooth="yes"/>
      <point x="194" y="173"/>
      <point x="212" y="188"/>
      <point x="241" y="188" type="curve"/>
      <point x="270" y="188"/>
      <point x="288" y="173"/>
      <point x="288" y="153" type="curve" smooth="yes"/>
      <point x="288" y="133"/>
      <point x="272" y="118"/>
    </contour>
    <contour>
      <point x="241" y="283" type="curve"/>
      <point x="217" y="283"/>
      <point x="202" y="297"/>
      <point x="202" y="316" type="curve" smooth="yes"/>
      <point x="202" y="339"/>
      <point x="219" y="351"/>
      <point x="241" y="351" type="curve"/>
      <point x="264" y="351"/>
      <point x="282" y="339"/>
      <point x="282" y="316" type="curve" smooth="yes"/>
      <point x="282" y="297"/>
      <point x="266" y="283"/>
    </contour>
  </outline>
</glyph>
<glyph name="gravecomb.case" format="2">
  <anchor x="300" y="502" name="_top"/>
  <anchor x="300" y="749" name="top"/>
  <outline>
    <contour>
      <point x="264" y="553" type="curve"/>
      <point x="422" y="555" type="line"/>
      <point x="385" y="622"/>
      <point x="347" y="688"/>
      <point x="310" y="756" type="curve"/>
      <point x="88" y="751" type="line"/>
      <point x="149" y="682"/>
      <point x="209" y="616"/>
    </contour>
  </outline>
</glyph>
<glyph name="guarani.BRACKET.140" format="2">
  <advance width="693"/>
  <outline>
    <contour>
      <point x="395" y="-14" type="curve" smooth="yes"/>
      <point x="496" y="-14"/>
      <point x="605" y="1"/>
      <point x="647" y="17" type="curve"/>
      <point x="619" y="221" type="line"/>
      <point x="552" y="184"/>
      <point x="501" y="169"/>
      <point x="417" y="169" type="curve"/>
      <point x="317" y="169"/>
      <point x="266" y="249"/>
      <point x="266" y="343" type="curve" smooth="yes"/>
      <point x="266" y="461"/>
      <point x="336" y="510"/>
      <point x="414" y="510" type="curve"/>
      <point x="466" y="510"/>
      <point x="539" y="490"/>
      <point x="621" y="442" type="curve"/>
      <point x="637" y="656" type="line"/>
      <point x="578" y="683"/>
      <point x="487" y="706"/>
      <point x="394" y="706" type="curve" smooth="yes"/>
      <point x="156" y="706"/>
      <point x="24" y="559"/>
      <point x="24" y="344" type="curve" smooth="yes"/>
      <point x="24" y="130"/>
      <point x="164" y="-14"/>
    </contour>
    <contour>
      <point x="428" y="12" type="curve"/>
      <point x="647" y="17" type="line"/>
      <point x="647" y="87"/>
      <point x="647" y="141"/>
      <point x="647" y="199" type="curve"/>
      <point x="647" y="265"/>
      <point x="647" y="312"/>
      <point x="647" y="366" type="curve"/>
      <point x="428" y="366" type="line"/>
      <point x="428" y="312"/>
      <point x="428" y="265"/>
      <point x="428" y="199" type="curve"/>
      <point x="428" y="141"/>
      <point x="428" y="86"/>
    </contour>
    <contour>
      <point x="306" y="-137" type="curve"/>
      <point x="466" y="-137" type="line"/>
      <point x="466" y="-55"/>
      <point x="466" y="19"/>
      <point x="466" y="93" type="curve"/>
      <point x="306" y="93" type="line"/>
      <point x="306" y="19"/>
      <point x="306" y="-55"/>
    </contour>
    <contour>
      <point x="306" y="604" type="curve"/>
      <point x="466" y="604" type="line"/>
      <point x="466" y="668"/>
      <point x="466" y="733"/>
      <point x="466" y="803" type="curve"/>
      <point x="306" y="803" type="line"/>
      <point x="306" y="733"/>
      <point x="306" y="668"/>
    </contour>
  </outline>
</glyph>
<glyph name="hungarumlautcomb.case" format="2">
  <anchor x="300" y="502" name="_top"/>
  <anchor x="300" y="757" name="top"/>
  <outline>
    <contour>
      <point x="320" y="553" type="curve"/>
      <point x="469" y="555" type="line"/>
      <point x="521" y="618"/>
      <point x="577" y="686"/>
      <point x="635" y="756" type="curve"/>
      <point x="425" y="751" type="line"/>
      <point x="390" y="685"/>
      <point x="355" y="619"/>
    </contour>
    <contour>
      <point x="90" y="553" type="curve"/>
      <point x="231" y="555" type="line"/>
      <point x="274" y="618"/>
      <point x="321" y="686"/>
      <point x="369" y="756" type="curve"/>
      <point x="169" y="751" type="line"/>
      <point x="142" y="685"/>
      <point x="116" y="619"/>
    </contour>
  </outline>
</glyph>
<glyph name="macroncomb.narrow" format="2">
  <anchor x="300" y="502" name="_top"/>
  <anchor x="300" y="717" name="top"/>
  <outline>
    <contour>
      <point x="144" y="563" type="line"/>
      <point x="191" y="563"/>
      <point x="243" y="563"/>
      <point x="300" y="563" type="curve"/>
      <point x="357" y="563"/>
      <point x="409" y="563"/>
      <point x="456" y="563" type="curve"/>
      <point x="456" y="723" type="line"/>
      <point x="409" y="723"/>
      <point x="357" y="723"/>
      <point x="300" y="723" type="curve"/>
      <point x="243" y="723"/>
      <point x="191" y="723"/>
      <point x="144" y="723" type="curve"/>
    </contour>
  </outline>
</glyph>
<glyph name="ogonekcomb.a" format="2">
  <anchor x="300" y="0" name="_ogonek"/>
  <outline>
    <contour>
      <point x="227" y="-228" type="curve" smooth="yes"/>
      <point x="259" y="-228"/>
      <point x="288" y="-224"/>
      <point x="303" y="-218" type="curve"/>
      <point x="303" y="-93" type="line"/>
      <point x="296" y="-95"/>
      <point x="283" y="-99"/>
      <point x="266" y="-99" type="curve" smooth="yes"/>
      <point x="237" y="-99"/>
      <point x="221" y="-88"/>
      <point x="221" y="-68" type="curve" smooth="yes"/>
      <point x="221" y="-39"/>
      <point x="251" y="-18"/>
      <point x="300" y="0" type="curve"/>
      <point x="255" y="41" type="line"/>
      <point x="144" y="27" type="line"/>
      <point x="144" y="-15" type="line"/>
      <point x="106" y="-31"/>
      <point x="64" y="-69"/>
      <point x="64" y="-128" type="curve" smooth="yes"/>
      <point x="64" y="-184"/>
      <point x="107" y="-228"/>
    </contour>
  </outline>
</glyph>
<glyph name="six.dnom" format="2">
  <advance width="472"/>
  <outline>
    <contour>
      <point x="249" y="-15" type="curve" smooth="yes"/>
      <point x="394" y="-15"/>
      <point x="451" y="68"/>
      <point x="451" y="152" type="curve" smooth="yes"/>
      <point x="451" y="241"/>
      <point x="387" y="288"/>
      <point x="298" y="288" type="curve" smooth="yes"/>
      <point x="253" y="288"/>
      <point x="220" y="275"/>
      <point x="202" y="265" type="curve"/>
      <point x="187" y="265" type="line"/>
      <point x="158" y="240"/>
      <point x="156" y="199"/>
      <point x="188" y="180" type="curve"/>
      <point x="205" y="192"/>
      <point x="225" y="194"/>
      <point x="242" y="194" type="curve"/>
      <point x="267" y="194"/>
      <point x="282" y="182"/>
      <point x="282" y="159" type="curve" smooth="yes"/>
      <point x="282" y="137"/>
      <point x="267" y="123"/>
      <point x="243" y="123" type="curve"/>
      <point x="213" y="123"/>
      <point x="189" y="146"/>
      <point x="189" y="228" type="curve" smooth="yes"/>
      <point x="189" y="309"/>
      <point x="205" y="337"/>
      <point x="277" y="337" type="curve"/>
      <point x="318" y="337"/>
      <point x="365" y="327"/>
      <point x="406" y="308" type="curve"/>
      <point x="419" y="455" type="line"/>
      <point x="376" y="466"/>
      <point x="325" y="477"/>
      <point x="265" y="477" type="curve" smooth="yes"/>
      <point x="131" y="477"/>
      <point x="23" y="418"/>
      <point x="23" y="232" type="curve" smooth="yes"/>
      <point x="23" y="67"/>
      <point x="99" y="-15"/>
    </contour>
  </outline>
</glyph>
<glyph name="zero.dnom" format="2">
  <advance width="502"/>
  <note>
254, 251
</note>
  <outline>
    <contour>
      <point x="253" y="-15" type="curve" smooth="yes"/>
      <point x="409" y="-15"/>
      <point x="479" y="86"/>
      <point x="479" y="231" type="curve" smooth="yes"/>
      <point x="479" y="371"/>
      <point x="413" y="477"/>
      <point x="249" y="477" type="curve" smooth="yes"/>
      <point x="87" y="477"/>
      <point x="23" y="372"/>
      <point x="23" y="230" type="curve" smooth="yes"/>
      <point x="23" y="98"/>
      <point x="83" y="-15"/>
    </contour>
    <contour>
      <point x="252" y="128" type="curve"/>
      <point x="215" y="128"/>
      <point x="202" y="170"/>
      <point x="202" y="231" type="curve" smooth="yes"/>
      <point x="202" y="295"/>
      <point x="216" y="334"/>
      <point x="252" y="334" type="curve"/>
      <point x="286" y="334"/>
      <point x="299" y="293"/>
      <point x="299" y="231" type="curve" smooth="yes"/>
      <point x="299" y="170"/>
      <point x="287" y="128"/>
    </contour>
  </outline>
</glyph>
